<svg width="640" height="320" fill="none" xmlns="http://www.w3.org/2000/svg"><path d="M227.219 133.832c6.523-5.781 11.836-11.348 15.937-16.699 4.141-5.391 7.383-10.449 9.727-15.176 2.344-4.726 3.945-9.082 4.805-13.066.859-3.985 1.289-7.48 1.289-10.489h9.609c0 3.516-.566 7.012-1.699 10.489-1.094 3.437-2.559 6.816-4.395 10.136a83.814 83.814 0 01-6.211 9.61 164.59 164.59 0 01-7.031 8.789 239.814 239.814 0 01-6.973 7.676 1111.424 1111.424 0 00-5.859 6.21c.547-.078 1.113-.156 1.699-.234a18.867 18.867 0 012.285-.117c2.578 0 4.981.43 7.207 1.289a46.564 46.564 0 016.329 2.871 199.452 199.452 0 015.859 3.281c1.914 1.055 3.808 1.817 5.683 2.286.235-6.954.352-14.278.352-21.973v-7.91l8.379-2.403c0 1.914-.02 4.102-.059 6.563 0 2.422-.019 5.039-.058 7.851a785.614 785.614 0 01-.176 8.789 786.865 786.865 0 01-.176 9.317c.86-.117 1.699-.313 2.52-.586.859-.274 1.816-.723 2.871-1.348l1.465 1.817a14.206 14.206 0 01-3.34 2.109 18.414 18.414 0 01-3.633 1.113c-.117 3.672-.254 7.364-.41 11.075-.156 3.71-.332 7.343-.527 10.898h-8.379c.195-3.516.39-7.09.586-10.723.195-3.672.351-7.461.468-11.367-2.031-.469-4.023-1.25-5.976-2.344a270.454 270.454 0 00-5.918-3.398 45.565 45.565 0 00-6.387-3.047c-2.227-.859-4.648-1.289-7.266-1.289-1.328 0-2.539.137-3.632.41a17.764 17.764 0 00-2.872.996c-.859.391-1.621.801-2.285 1.231-.625.39-1.172.722-1.64.996l-2.168-3.633zm92.461 29.18c3.281 0 5.996-1.133 8.144-3.399 2.188-2.304 3.906-5.351 5.156-9.14 1.29-3.789 2.188-8.125 2.696-13.008.508-4.922.762-10.02.762-15.293 0-3.477-.118-6.895-.352-10.254-.195-3.398-.547-6.602-1.055-9.609-.508-3.047-1.191-5.84-2.051-8.38-.82-2.577-1.855-4.785-3.105-6.62-1.25-1.875-2.715-3.32-4.395-4.336-1.679-1.055-3.613-1.582-5.8-1.582-2.227 0-4.18.527-5.86 1.582-1.679 1.015-3.144 2.46-4.394 4.336-1.25 1.835-2.305 4.043-3.164 6.62-.821 2.54-1.485 5.333-1.992 8.38-.508 3.007-.879 6.211-1.114 9.609a176.92 176.92 0 00-.293 10.254c0 5.273.254 10.371.762 15.293.508 4.883 1.387 9.219 2.637 13.008 1.289 3.789 3.008 6.836 5.156 9.14 2.187 2.266 4.941 3.399 8.262 3.399zm0 2.988c-4.532 0-8.457-1.094-11.778-3.281-3.281-2.227-6.015-5.274-8.203-9.141-2.187-3.906-3.808-8.535-4.863-13.887-1.055-5.351-1.582-11.191-1.582-17.519 0-6.289.527-12.11 1.582-17.461 1.055-5.352 2.676-9.961 4.863-13.828 2.188-3.906 4.922-6.953 8.203-9.14 3.321-2.227 7.246-3.34 11.778-3.34 4.492 0 8.398 1.113 11.718 3.34 3.321 2.187 6.055 5.234 8.204 9.14 2.187 3.867 3.808 8.476 4.863 13.828 1.055 5.351 1.582 11.172 1.582 17.461 0 6.328-.527 12.168-1.582 17.519-1.055 5.352-2.676 9.981-4.863 13.887-2.149 3.867-4.883 6.914-8.204 9.141-3.32 2.187-7.226 3.281-11.718 3.281zm38.437-32.168c6.524-5.781 11.836-11.348 15.938-16.699 4.14-5.391 7.383-10.449 9.726-15.176 2.344-4.726 3.946-9.082 4.805-13.066.859-3.985 1.289-7.48 1.289-10.489h9.609c0 3.516-.566 7.012-1.699 10.489-1.094 3.437-2.558 6.816-4.394 10.136a83.949 83.949 0 01-6.211 9.61 165.102 165.102 0 01-7.032 8.789 239.822 239.822 0 01-6.972 7.676 1078.8 1078.8 0 00-5.86 6.21c.547-.078 1.114-.156 1.7-.234a18.855 18.855 0 012.285-.117c2.578 0 4.98.43 7.207 1.289a46.551 46.551 0 016.328 2.871 199.452 199.452 0 015.859 3.281c1.914 1.055 3.809 1.817 5.684 2.286.234-6.954.351-14.278.351-21.973v-7.91l8.379-2.403c0 1.914-.019 4.102-.058 6.563 0 2.422-.02 5.039-.059 7.851a762.352 762.352 0 01-.176 8.789 786.592 786.592 0 01-.175 9.317 13.897 13.897 0 002.519-.586c.86-.274 1.817-.723 2.871-1.348l1.465 1.817a14.206 14.206 0 01-3.34 2.109 18.414 18.414 0 01-3.633 1.113c-.117 3.672-.253 7.364-.41 11.075-.156 3.71-.332 7.343-.527 10.898h-8.379c.195-3.516.391-7.09.586-10.723.195-3.672.352-7.461.469-11.367-2.032-.469-4.024-1.25-5.977-2.344a270.454 270.454 0 00-5.918-3.398 45.565 45.565 0 00-6.387-3.047c-2.226-.859-4.648-1.289-7.265-1.289-1.328 0-2.539.137-3.633.41a17.717 17.717 0 00-2.871.996c-.859.391-1.621.801-2.285 1.231-.625.39-1.172.722-1.641.996l-2.168-3.633z" fill="#00BFFF"/><path d="M67.352 244.288c-3.328 0-6.336-.736-9.024-2.208-2.656-1.472-4.752-3.504-6.288-6.096-1.504-2.624-2.256-5.552-2.256-8.784 0-3.232.752-6.144 2.256-8.736 1.536-2.624 3.648-4.672 6.336-6.144 2.688-1.472 5.696-2.208 9.024-2.208 2.496 0 4.8.416 6.912 1.248 2.112.832 3.904 2.048 5.376 3.648l-2.256 2.256c-2.624-2.656-5.936-3.984-9.936-3.984-2.656 0-5.072.608-7.248 1.824-2.176 1.216-3.888 2.88-5.136 4.992-1.216 2.112-1.824 4.48-1.824 7.104 0 2.624.608 4.992 1.824 7.104 1.248 2.112 2.96 3.776 5.136 4.992 2.176 1.216 4.592 1.824 7.248 1.824 4.032 0 7.344-1.344 9.936-4.032l2.256 2.256c-1.472 1.6-3.28 2.832-5.424 3.696-2.112.832-4.416 1.248-6.912 1.248zm35.912-22.512h-9.552V244h-3.408v-22.224h-9.552v-3.024h22.512v3.024zm17.936-3.216c2.368 0 4.512.544 6.432 1.632 1.92 1.056 3.424 2.56 4.512 4.512 1.088 1.952 1.632 4.176 1.632 6.672 0 2.528-.544 4.768-1.632 6.72-1.088 1.952-2.592 3.472-4.512 4.56-1.888 1.056-4.032 1.584-6.432 1.584-2.048 0-3.904-.416-5.568-1.248-1.632-.864-2.976-2.112-4.032-3.744v14.064h-3.408v-34.56h3.264v4.992c1.024-1.664 2.368-2.944 4.032-3.84 1.696-.896 3.6-1.344 5.712-1.344zm-.24 22.656c1.76 0 3.36-.4 4.8-1.2 1.44-.832 2.56-2 3.36-3.504.832-1.504 1.248-3.216 1.248-5.136s-.416-3.616-1.248-5.088c-.8-1.504-1.92-2.672-3.36-3.504-1.44-.832-3.04-1.248-4.8-1.248-1.792 0-3.408.416-4.848 1.248-1.408.832-2.528 2-3.36 3.504-.8 1.472-1.2 3.168-1.2 5.088s.4 3.632 1.2 5.136c.832 1.504 1.952 2.672 3.36 3.504 1.44.8 3.056 1.2 4.848 1.2zm28.685-22.656c3.296 0 5.824.832 7.584 2.496 1.76 1.632 2.64 4.064 2.64 7.296V244h-3.264v-3.936c-.768 1.312-1.904 2.336-3.408 3.072-1.472.736-3.232 1.104-5.28 1.104-2.816 0-5.056-.672-6.72-2.016-1.664-1.344-2.496-3.12-2.496-5.328 0-2.144.768-3.872 2.304-5.184 1.568-1.312 4.048-1.968 7.44-1.968h8.016v-1.536c0-2.176-.608-3.824-1.824-4.944-1.216-1.152-2.992-1.728-5.328-1.728-1.6 0-3.136.272-4.608.816-1.472.512-2.736 1.232-3.792 2.16l-1.536-2.544c1.28-1.088 2.816-1.92 4.608-2.496a17.508 17.508 0 015.664-.912zm-1.2 22.992c1.92 0 3.568-.432 4.944-1.296 1.376-.896 2.4-2.176 3.072-3.84v-4.128h-7.92c-4.32 0-6.48 1.504-6.48 4.512 0 1.472.56 2.64 1.68 3.504 1.12.832 2.688 1.248 4.704 1.248zm20.497-22.8h3.408v11.184h15.888v-11.184h3.408V244h-3.408v-11.136H172.35V244h-3.408v-25.248zm32.39 0h3.408v20.064l16.848-20.064h3.024V244h-3.408v-20.064L204.404 244h-3.072v-25.248zm59.351 22.272v9.312h-3.216V244h-23.088v-25.248h3.408v22.272h15.408v-22.272h3.408v22.272h4.08zm15.197-22.464c3.296 0 5.824.832 7.584 2.496 1.76 1.632 2.64 4.064 2.64 7.296V244h-3.264v-3.936c-.768 1.312-1.904 2.336-3.408 3.072-1.472.736-3.232 1.104-5.28 1.104-2.816 0-5.056-.672-6.72-2.016-1.664-1.344-2.496-3.12-2.496-5.328 0-2.144.768-3.872 2.304-5.184 1.568-1.312 4.048-1.968 7.44-1.968h8.016v-1.536c0-2.176-.608-3.824-1.824-4.944-1.216-1.152-2.992-1.728-5.328-1.728-1.6 0-3.136.272-4.608.816-1.472.512-2.736 1.232-3.792 2.16l-1.536-2.544c1.28-1.088 2.816-1.92 4.608-2.496a17.508 17.508 0 015.664-.912zm-1.2 22.992c1.92 0 3.568-.432 4.944-1.296 1.376-.896 2.4-2.176 3.072-3.84v-4.128h-7.92c-4.32 0-6.48 1.504-6.48 4.512 0 1.472.56 2.64 1.68 3.504 1.12.832 2.688 1.248 4.704 1.248zm33.059-22.8h3.408v11.184h15.888v-11.184h3.408V244h-3.408v-11.136h-15.888V244h-3.408v-25.248zm54.47 13.68h-21.12c.192 2.624 1.2 4.752 3.024 6.384 1.824 1.6 4.128 2.4 6.912 2.4 1.568 0 3.008-.272 4.32-.816a9.694 9.694 0 003.408-2.496l1.92 2.208c-1.12 1.344-2.528 2.368-4.224 3.072-1.664.704-3.504 1.056-5.52 1.056-2.592 0-4.896-.544-6.912-1.632-1.984-1.12-3.536-2.656-4.656-4.608-1.12-1.952-1.68-4.16-1.68-6.624 0-2.464.528-4.672 1.584-6.624 1.088-1.952 2.56-3.472 4.416-4.56 1.888-1.088 4-1.632 6.336-1.632 2.336 0 4.432.544 6.288 1.632 1.856 1.088 3.312 2.608 4.368 4.56 1.056 1.92 1.584 4.128 1.584 6.624l-.048 1.056zm-12.192-10.944c-2.432 0-4.48.784-6.144 2.352-1.632 1.536-2.56 3.552-2.784 6.048h17.904c-.224-2.496-1.168-4.512-2.832-6.048-1.632-1.568-3.68-2.352-6.144-2.352zm32.347-2.736h3.408v11.184h15.888v-11.184h3.408V244h-3.408v-11.136h-15.888V244h-3.408v-25.248zm41.078-.192c3.296 0 5.824.832 7.584 2.496 1.76 1.632 2.64 4.064 2.64 7.296V244h-3.264v-3.936c-.768 1.312-1.904 2.336-3.408 3.072-1.472.736-3.232 1.104-5.28 1.104-2.816 0-5.056-.672-6.72-2.016-1.664-1.344-2.496-3.12-2.496-5.328 0-2.144.768-3.872 2.304-5.184 1.568-1.312 4.048-1.968 7.44-1.968h8.016v-1.536c0-2.176-.608-3.824-1.824-4.944-1.216-1.152-2.992-1.728-5.328-1.728-1.6 0-3.136.272-4.608.816-1.472.512-2.736 1.232-3.792 2.16l-1.536-2.544c1.28-1.088 2.816-1.92 4.608-2.496a17.508 17.508 0 015.664-.912zm-1.2 22.992c1.92 0 3.568-.432 4.944-1.296 1.376-.896 2.4-2.176 3.072-3.84v-4.128h-7.92c-4.32 0-6.48 1.504-6.48 4.512 0 1.472.56 2.64 1.68 3.504 1.12.832 2.688 1.248 4.704 1.248zm20.497-22.8h3.408v20.064l16.848-20.064h3.024V244h-3.408v-20.064L445.811 244h-3.072v-25.248zm11.472-3.648c-2.176 0-3.904-.544-5.184-1.632-1.28-1.088-1.936-2.624-1.968-4.608h2.448c.032 1.248.48 2.256 1.344 3.024.864.736 1.984 1.104 3.36 1.104s2.496-.368 3.36-1.104c.896-.768 1.36-1.776 1.392-3.024h2.448c-.032 1.984-.704 3.52-2.016 4.608-1.28 1.088-3.008 1.632-5.184 1.632zm46.199 25.92v9.072h-3.216V244h-22.608v6.096h-3.216v-9.072h1.44c1.696-.096 2.848-1.344 3.456-3.744.608-2.4 1.024-5.76 1.248-10.08l.336-8.448h18.624v22.272h3.936zm-19.776-13.632c-.16 3.584-.464 6.544-.912 8.88-.448 2.304-1.248 3.888-2.4 4.752h15.744v-19.248h-12.144l-.288 5.616zm48.497 5.04h-21.12c.192 2.624 1.2 4.752 3.024 6.384 1.824 1.6 4.128 2.4 6.912 2.4 1.568 0 3.008-.272 4.32-.816a9.694 9.694 0 003.408-2.496l1.92 2.208c-1.12 1.344-2.528 2.368-4.224 3.072-1.664.704-3.504 1.056-5.52 1.056-2.592 0-4.896-.544-6.912-1.632-1.984-1.12-3.536-2.656-4.656-4.608-1.12-1.952-1.68-4.16-1.68-6.624 0-2.464.528-4.672 1.584-6.624 1.088-1.952 2.56-3.472 4.416-4.56 1.888-1.088 4-1.632 6.336-1.632 2.336 0 4.432.544 6.288 1.632 1.856 1.088 3.312 2.608 4.368 4.56 1.056 1.92 1.584 4.128 1.584 6.624l-.048 1.056zm-12.192-10.944c-2.432 0-4.48.784-6.144 2.352-1.632 1.536-2.56 3.552-2.784 6.048h17.904c-.224-2.496-1.168-4.512-2.832-6.048-1.632-1.568-3.68-2.352-6.144-2.352zm19.784-2.736h3.408v11.184h15.888v-11.184h3.408V244h-3.408v-11.136h-15.888V244h-3.408v-25.248zm41.079-.192c3.296 0 5.824.832 7.584 2.496 1.76 1.632 2.64 4.064 2.64 7.296V244h-3.264v-3.936c-.768 1.312-1.904 2.336-3.408 3.072-1.472.736-3.232 1.104-5.28 1.104-2.816 0-5.056-.672-6.72-2.016-1.664-1.344-2.496-3.12-2.496-5.328 0-2.144.768-3.872 2.304-5.184 1.568-1.312 4.048-1.968 7.44-1.968h8.016v-1.536c0-2.176-.608-3.824-1.824-4.944-1.216-1.152-2.992-1.728-5.328-1.728-1.6 0-3.136.272-4.608.816-1.472.512-2.736 1.232-3.792 2.16l-1.536-2.544c1.28-1.088 2.816-1.92 4.608-2.496a17.508 17.508 0 015.664-.912zm-1.2 22.992c1.92 0 3.568-.432 4.944-1.296 1.376-.896 2.4-2.176 3.072-3.84v-4.128h-7.92c-4.32 0-6.48 1.504-6.48 4.512 0 1.472.56 2.64 1.68 3.504 1.12.832 2.688 1.248 4.704 1.248z" fill="#000"/></svg>