<svg width="201" height="201" fill="none" xmlns="http://www.w3.org/2000/svg"><path d="M160 52H40c-5.523 0-10 4.477-10 10s4.477 10 10 10h120c5.523 0 10-4.477 10-10s-4.477-10-10-10z" fill="url(#paint0_linear)"/><path d="M160 90H40c-5.523 0-10 4.477-10 10s4.477 10 10 10h120c5.523 0 10-4.477 10-10s-4.477-10-10-10z" fill="url(#paint1_linear)"/><path d="M160 128H40c-5.523 0-10 4.477-10 10s4.477 10 10 10h120c5.523 0 10-4.477 10-10s-4.477-10-10-10z" fill="url(#paint2_linear)"/><path d="M142.5 9h-84C31.162 9 9 31.162 9 58.5v84C9 169.838 31.162 192 58.5 192h84c27.338 0 49.5-22.162 49.5-49.5v-84C192 31.162 169.838 9 142.5 9z" stroke="url(#paint3_linear)" stroke-width="17"/><defs><linearGradient id="paint0_linear" x1="0" y1="72" x2="147.309" y2="264.936" gradientUnits="userSpaceOnUse"><stop stop-color="#8BC4C1"/><stop offset=".7" stop-color="#0093DD"/><stop offset="1" stop-color="#23164D"/></linearGradient><linearGradient id="paint1_linear" x1="0" y1="72" x2="147.309" y2="264.936" gradientUnits="userSpaceOnUse"><stop stop-color="#8BC4C1"/><stop offset=".7" stop-color="#0093DD"/><stop offset="1" stop-color="#23164D"/></linearGradient><linearGradient id="paint2_linear" x1="0" y1="72" x2="147.309" y2="264.936" gradientUnits="userSpaceOnUse"><stop stop-color="#8BC4C1"/><stop offset=".7" stop-color="#0093DD"/><stop offset="1" stop-color="#23164D"/></linearGradient><linearGradient id="paint3_linear" x1=".5" y1="72.5" x2="147.809" y2="265.436" gradientUnits="userSpaceOnUse"><stop stop-color="#8BC4C1"/><stop offset=".7" stop-color="#0093DD"/><stop offset="1" stop-color="#23164D"/></linearGradient></defs></svg>