<svg width="200" height="200" fill="none" xmlns="http://www.w3.org/2000/svg"><path d="M142.305 0h-84.61C25.82 0 0 25.82 0 57.695v124.727C0 192.148 7.852 200 17.578 200h164.844c9.726 0 17.578-7.852 17.578-17.578V57.695C200 25.82 174.18 0 142.305 0zm41.093 182.422a.966.966 0 01-.976.976H17.578a.967.967 0 01-.976-.976V57.695c0-22.656 18.437-41.054 41.054-41.054h84.649c22.656 0 41.054 18.437 41.054 41.054v124.727h.039z" fill="url(#paint0_linear)"/><path d="M100 25.664c-33.008 0-59.844 26.836-59.844 59.844S66.992 145.312 100 145.312s59.844-26.835 59.844-59.843S133.008 25.664 100 25.664zm0 103.047c-23.828 0-43.203-19.375-43.203-43.203 0-23.828 19.375-43.242 43.203-43.242 23.828 0 43.203 19.375 43.203 43.203 0 23.828-19.375 43.242-43.203 43.242z" fill="url(#paint1_linear)"/><path d="M100 47.188c-21.133 0-38.32 17.187-38.32 38.32s17.187 38.32 38.32 38.32 38.32-17.187 38.32-38.32-17.187-38.32-38.32-38.32zm0 59.999c-11.953 0-21.719-9.726-21.719-21.718 0-11.953 9.727-21.719 21.719-21.719s21.719 9.727 21.719 21.719-9.766 21.718-21.719 21.718z" fill="url(#paint2_linear)"/><path d="M44.258 174.492c5.35 0 9.687-4.337 9.687-9.687 0-5.351-4.337-9.688-9.687-9.688s-9.688 4.337-9.688 9.688c0 5.35 4.338 9.687 9.688 9.687z" fill="url(#paint3_linear)"/><path d="M81.406 174.492c5.35 0 9.688-4.337 9.688-9.687 0-5.351-4.338-9.688-9.688-9.688-5.35 0-9.687 4.337-9.687 9.688 0 5.35 4.337 9.687 9.687 9.687z" fill="url(#paint4_linear)"/><path d="M118.594 174.492c5.35 0 9.687-4.337 9.687-9.687 0-5.351-4.337-9.688-9.687-9.688a9.687 9.687 0 00-9.688 9.688c0 5.35 4.337 9.687 9.688 9.687z" fill="url(#paint5_linear)"/><path d="M155.742 174.492c5.35 0 9.688-4.337 9.688-9.687 0-5.351-4.338-9.688-9.688-9.688-5.35 0-9.687 4.337-9.687 9.688 0 5.35 4.337 9.687 9.687 9.687z" fill="url(#paint6_linear)"/><defs><linearGradient id="paint0_linear" x1="0" y1="47" x2="147.309" y2="239.936" gradientUnits="userSpaceOnUse"><stop stop-color="#8BC4C1"/><stop offset=".7" stop-color="#0093DD"/><stop offset="1" stop-color="#23164D"/></linearGradient><linearGradient id="paint1_linear" x1="0" y1="47" x2="147.309" y2="239.936" gradientUnits="userSpaceOnUse"><stop stop-color="#8BC4C1"/><stop offset=".7" stop-color="#0093DD"/><stop offset="1" stop-color="#23164D"/></linearGradient><linearGradient id="paint2_linear" x1="0" y1="47" x2="147.309" y2="239.936" gradientUnits="userSpaceOnUse"><stop stop-color="#8BC4C1"/><stop offset=".7" stop-color="#0093DD"/><stop offset="1" stop-color="#23164D"/></linearGradient><linearGradient id="paint3_linear" x1="0" y1="47" x2="147.309" y2="239.936" gradientUnits="userSpaceOnUse"><stop stop-color="#8BC4C1"/><stop offset=".7" stop-color="#0093DD"/><stop offset="1" stop-color="#23164D"/></linearGradient><linearGradient id="paint4_linear" x1="0" y1="47" x2="147.309" y2="239.936" gradientUnits="userSpaceOnUse"><stop stop-color="#8BC4C1"/><stop offset=".7" stop-color="#0093DD"/><stop offset="1" stop-color="#23164D"/></linearGradient><linearGradient id="paint5_linear" x1="0" y1="47" x2="147.309" y2="239.936" gradientUnits="userSpaceOnUse"><stop stop-color="#8BC4C1"/><stop offset=".7" stop-color="#0093DD"/><stop offset="1" stop-color="#23164D"/></linearGradient><linearGradient id="paint6_linear" x1="0" y1="47" x2="147.309" y2="239.936" gradientUnits="userSpaceOnUse"><stop stop-color="#8BC4C1"/><stop offset=".7" stop-color="#0093DD"/><stop offset="1" stop-color="#23164D"/></linearGradient></defs></svg>