<svg width="200" height="200" fill="none" xmlns="http://www.w3.org/2000/svg"><path d="M137.765 126.975l-64.74-64.74a7.63 7.63 0 00-10.79 10.79l64.74 64.74a7.629 7.629 0 0010.79 0 7.629 7.629 0 000-10.79z" fill="url(#closed)"/><path d="M126.975 62.235l-64.74 64.741a7.63 7.63 0 1010.79 10.79l64.74-64.74a7.63 7.63 0 10-10.79-10.79z" fill="url(#closed)"/><path d="M191.5 100c0-50.534-40.966-91.5-91.5-91.5S8.5 49.466 8.5 100s40.966 91.5 91.5 91.5 91.5-40.966 91.5-91.5z" stroke="url(#closed)" stroke-width="17"/><defs><linearGradient id="closed" x1="-36.9" y1="122.907" x2="203.69" y2="155.17" gradientUnits="userSpaceOnUse"><stop stop-color="#EC7B05"/><stop offset=".7" stop-color="#DA4005"/><stop offset="1" stop-color="#F10202"/></linearGradient></defs></svg>