<svg width="200" height="200" fill="none" xmlns="http://www.w3.org/2000/svg"><path d="M100 183c-45.84 0-83-37.16-83-83h-34c0 64.617 52.383 117 117 117v-34zm83-83c0 45.84-37.16 83-83 83v34c64.617 0 117-52.383 117-117h-34zm-83-83c45.84 0 83 37.16 83 83h34c0-64.617-52.383-117-117-117v34zm0-34C35.383-17-17 35.383-17 100h34c0-45.84 37.16-83 83-83v-34z" fill="url(#burclose)"/><rect x="57.142" y="43" width="140" height="20" rx="10" transform="rotate(45 57.142 43)" fill="url(#burclose)"/><rect x="43" y="141.995" width="140" height="20" rx="10" transform="rotate(-45 43 141.995)" fill="url(#burclose)"/><defs><linearGradient id="burclose" x1="0" y1="72" x2="147.309" y2="264.936" gradientUnits="userSpaceOnUse"><stop stop-color="#ec7b05"/><stop offset=".7" stop-color="#da4005"/><stop offset="1" stop-color="#f10202"/></linearGradient></defs></svg>