<svg width="200" height="200" fill="none" xmlns="http://www.w3.org/2000/svg"><path d="M1.689 157.515h178.033v8.734a8.701 8.701 0 01-2.563 6.165l-.005.005c-1.59 1.584-3.769 2.569-6.165 2.569H8.735a8.713 8.713 0 01-6.17-2.569A8.712 8.712 0 010 166.249v-8.734h1.69-.001zm94.31-78.11V39.882c0-4.109 1.667-7.823 4.354-10.51a14.827 14.827 0 0110.511-4.359h74.271c4.104 0 7.823 1.667 10.509 4.359a14.797 14.797 0 014.355 10.51v39.523c0 4.105-1.663 7.824-4.355 10.511a14.802 14.802 0 01-10.509 4.355h-44.35l-33.639 13.989a1.692 1.692 0 01-2.205-.911 1.687 1.687 0 01.28-1.752l9.083-11.325h-3.439c-4.1 0-7.819-1.663-10.511-4.355a14.829 14.829 0 01-4.353-10.51l-.002-.002zm17.447-3.497a1.686 1.686 0 01-1.688-1.688c0-.935.752-1.687 1.688-1.687h45.714c.936 0 1.688.752 1.688 1.687 0 .931-.752 1.688-1.688 1.688h-45.714zm0-14.589a1.683 1.683 0 01-1.688-1.688c0-.93.752-1.687 1.688-1.687h70.62a1.687 1.687 0 110 3.376h-70.62zm0-14.584a1.687 1.687 0 01-1.688-1.693c0-.93.752-1.687 1.688-1.687h70.62a1.69 1.69 0 010 3.38h-70.62zm-14.067-6.853v39.523a11.43 11.43 0 003.365 8.124 11.456 11.456 0 008.117 3.365h6.954v.005c.368 0 .742.118 1.053.368a1.69 1.69 0 01.261 2.372l-7.198 8.975 27.783-11.549a1.62 1.62 0 01.74-.171h44.681c3.173 0 6.042-1.29 8.122-3.365a11.463 11.463 0 003.365-8.124V39.882c0-3.173-1.29-6.047-3.365-8.123a11.444 11.444 0 00-8.122-3.365h-74.271a11.434 11.434 0 00-8.119 3.365 11.438 11.438 0 00-3.365 8.123h-.001zm-48.97 65.765l7.276 17.098 6.818-17.098H50.408zm17.717 0l-8.797 22.057a1.695 1.695 0 01-.936 1.009 1.692 1.692 0 01-2.214-.892l-9.431-22.176H42.25a9.583 9.583 0 00-6.79 2.824 9.588 9.588 0 00-2.824 6.79v27.976h6.712v-19.459a1.69 1.69 0 013.38 0v19.459h30.767v-20.036c0-.935.758-1.687 1.694-1.687.93 0 1.687.752 1.687 1.687v20.036h8.168v-27.976a9.589 9.589 0 00-2.824-6.79l-.08-.084a9.595 9.595 0 00-6.71-2.74h-7.303l-.001.002zm-38.869 37.59v-27.976c0-3.576 1.461-6.825 3.818-9.177a12.937 12.937 0 019.176-3.818H75.43c3.522 0 6.73 1.426 9.076 3.724l.098.093a12.938 12.938 0 013.819 9.176v27.976h71.568v-42.211h3.38v44.594l-.498.491-.004.009-.498.492H16.88l-.506-.581-.005-.005-.424-.482v-89.47l.123-.315.004-.004.267-.67.669-.266.005-.005.315-.122H89.24v3.379H19.325v85.164h9.928l.004.004zm29.58-76.889a17.19 17.19 0 0112.192 5.053 17.188 17.188 0 015.054 12.188c0 4.752-1.934 9.062-5.059 12.186h.005a17.185 17.185 0 01-12.191 5.054 17.187 17.187 0 01-12.188-5.054l-.092-.097a17.195 17.195 0 01-4.96-12.09 17.19 17.19 0 015.054-12.187 17.186 17.186 0 0112.187-5.053h-.001zm9.805 7.439a13.826 13.826 0 00-9.806-4.06 13.82 13.82 0 00-9.801 4.06 13.835 13.835 0 00-4.06 9.802 13.82 13.82 0 003.976 9.723l.084.078a13.825 13.825 0 009.801 4.06 13.82 13.82 0 009.806-4.06v.004l.005-.005a13.813 13.813 0 004.053-9.8c0-3.83-1.554-7.292-4.06-9.802h.002zM17.64 46.884h71.604v3.379H17.64a6.098 6.098 0 00-4.324 1.801 6.114 6.114 0 00-1.803 4.32v88.535a6.12 6.12 0 001.803 4.324 6.103 6.103 0 004.324 1.802h144.034a6.106 6.106 0 004.328-1.802 6.117 6.117 0 001.796-4.324v-43.895h3.38v43.895a9.473 9.473 0 01-2.796 6.707l-.004.005a9.502 9.502 0 01-6.708 2.789H17.636a9.47 9.47 0 01-6.706-2.789h-.005a9.476 9.476 0 01-2.79-6.712V56.385a9.475 9.475 0 012.79-6.713 9.5 9.5 0 016.711-2.79l.004.002zm95.663 114.007v1.834c0 1.191-.216 2.302-.561 3.138-.537 1.279-1.441 2.077-2.599 2.077H69.576c-1.156 0-2.057-.798-2.594-2.077-.35-.836-.565-1.947-.565-3.138v-1.834H3.373v5.357c0 1.471.605 2.814 1.58 3.785a5.318 5.318 0 003.78 1.574h162.253c1.476 0 2.814-.6 3.784-1.57l.005-.004a5.323 5.323 0 001.571-3.785v-5.357h-63.044.001zm-43.505 0v1.834c0 .748.114 1.393.294 1.834h39.534c.182-.441.294-1.086.294-1.834v-1.834H69.796h.002z" fill="url(#paint0_linear)"/><defs><linearGradient id="paint0_linear" x1="0" y1="73" x2="147.309" y2="265.936" gradientUnits="userSpaceOnUse"><stop stop-color="#8BC4C1"/><stop offset=".7" stop-color="#0093DD"/><stop offset="1" stop-color="#23164D"/></linearGradient></defs></svg>