<svg width="200" height="200" fill="none" xmlns="http://www.w3.org/2000/svg"><g clip-path="url(#clip0)" fill="#707070" stroke="#fff" stroke-width="2"><path d="M174.82 95.746h1.162l-.173-1.15c-2.297-15.223-3.617-31.162-2.996-46.305l.081-1.981-1.641 1.112c-16.794 11.379-34.042 27.206-46.353 46.791l-.963 1.533h50.883z"/><path d="M116.453 95.262c21.551-35.724 53.806-54.818 56.033-56.127l.025-.014 6.882-3.992-.65 7.332c-1.062 11.875-.588 24.983.782 38.217l1.989.005c2.182-19.987 5.84-39.895 11.819-57.25l.569-1.649-1.711.343.197.98-.198-.98-.003.001-.01.002-.038.008a28.948 28.948 0 00-.688.15c-.479.11-1.184.276-2.093.508a133.194 133.194 0 00-7.746 2.252c-6.583 2.118-15.787 5.558-26.293 10.85-21.011 10.583-47.254 28.59-68.142 58.272l-1.109 1.576h30.093l.292-.484zm58.795 88.556l-.003-.001-.101-.005h-.004c-27.935-1.322-47.427-6.938-59.911-12.201-6.243-2.631-10.737-5.176-13.66-7.054a49.34 49.34 0 01-3.23-2.245c-.225-.171-.41-.318-.56-.437l.121-.512c.16-.683.375-1.615.593-2.611.428-1.953.899-4.276.963-5.388l.06-1.058H59.87l-.204.731a228.698 228.698 0 00-1.333 5.019l-.125.487.317.39.776-.63a40.7 40.7 0 00-.775.632l.002.002.006.007.02.024.07.083c.061.072.15.175.27.307.238.264.594.646 1.078 1.128.969.963 2.447 2.329 4.508 3.962 4.124 3.267 10.58 7.603 19.953 11.94 18.75 8.677 49.151 17.348 95.889 17.504l1.105.004-.106-1.099v0-.002l-.001-.006-.002-.025-.009-.098-.037-.39-.136-1.534a553.947 553.947 0 01-.477-5.89l-.072-.947-.95.023c-1.484.037-2.897-.034-4.389-.11z"/><path d="M188.054 152.547c-2.27.269-4.572.423-6.831.423-7.258 0-14.242-1.834-19.543-6.722-2.284-2.135-4.001-4.562-5.194-7.212l-.713-1.582-1.012 1.41c-2.743 3.825-5.902 7.463-9.546 9.944-4.305 2.881-9.219 4.201-14.431 4.201-1.683 0-3.414-.188-5.084-.49-5.219-1.046-9.82-4.116-14.58-7.667l-1.269-.946-.31 1.552-2.616 13.078-.124.621.508.378.597-.803c-.597.803-.596.803-.596.804l.002.001.006.004.018.014.069.05c.059.042.146.104.261.183.229.158.568.386 1.019.674a61.824 61.824 0 004.049 2.351c3.6 1.926 9.012 4.452 16.293 6.882 14.565 4.86 36.6 9.329 66.573 7.839l1.329-.066-.434-1.259-.138.048.138-.048h0v-.002l-.003-.007-.009-.026-.036-.106-.141-.412a736.67 736.67 0 01-2.339-6.978c-1.457-4.427-3.298-10.164-4.836-15.419l-.237-.812-.84.1z"/><path d="M136.092 130.711c-.688.929-1.471 1.674-2.319 2.223l-.017.011c-.944.607-1.891.894-2.934.894a9.5 9.5 0 01-3.92-.847l-1.13-.514-.261 1.215-2.147 9.994-.148.687.596.372c.796.497 1.894.796 3.198 1.032 1.279.24 2.556.408 3.812.408 4.032 0 7.593-.981 10.634-3.061 3.011-2.024 6.182-5.627 9.523-10.66l.003-.004 18.661-28.382 1.019-1.55h-16.327l-.289.496.864.504-.864-.503h0l-.001.001-.004.007-.014.024-.055.094-.212.363-.771 1.32c-.648 1.108-1.533 2.62-2.484 4.239a1159.68 1159.68 0 01-3.811 6.45l-2.596-12.203-.168-.792h-15.878l.364 1.275 7.676 26.907z"/><path d="M119.417 130.453h0c2.986-1.245 5.372-3.205 7.049-5.761l.001-.001c1.673-2.553 2.544-5.516 2.544-8.786 0-4.208-1.332-7.556-4.096-9.932h.001l-.007-.005c-2.781-2.354-6.637-3.439-11.46-3.439h-17.71l-.171.789-8.862 40.915-.262 1.211h14.66l.167-.793 2.605-12.324h5.201c3.933 0 7.387-.643 10.34-1.874zm-7.182-10.258l-.001.001c-.86.86-2.062 1.308-3.665 1.308 0 0 0 0 0 0l-2.279-.001 1.722-8.111h1.416c1.528 0 2.558.354 3.219.895.635.556.974 1.274.974 2.478 0 1.416-.483 2.527-1.386 3.43z"/><path d="M71.498 137.909l.549 6.618.076.917h14.886l-.129-1.114-4.723-40.954-.102-.886H64.926l-.288.507-23.229 40.954-.847 1.493h16.196l.276-.554 3.473-6.981h10.991zm-.78-11.604h-4.844l4.52-9.617c.034 1.133.075 2.415.117 3.687a2086.315 2086.315 0 00.207 5.93zm107.172-5.988c.963-1.82 2.31-3.205 4.101-4.245 1.786-.999 3.915-1.548 6.376-1.548 1.972 0 3.594.19 4.885.549h0l.007.002c1.394.377 2.636.829 3.767 1.319l1.105.479.268-1.174 2.577-11.283.223-.975-.975-.223c-1.396-.318-3.099-.635-5.062-.949l-.035.109.015-.112c-1.986-.277-3.947-.439-5.76-.439-5.614 0-10.61.956-14.838 2.987-4.27 2.034-7.625 5.057-9.994 9.099-2.404 4.036-3.575 8.588-3.575 13.705 0 5.681 1.754 10.303 5.317 13.615h0c3.561 3.309 8.6 4.914 14.931 4.914 3.762 0 7.198-.521 10.371-1.66l.517-.186.121-.536 2.537-11.282.444-1.976-1.839.849a27.775 27.775 0 01-4.597 1.657h0l-.007.002c-1.525.41-2.921.591-4.152.591-2.858 0-4.801-.668-6.113-1.882-1.324-1.225-2.06-2.932-2.06-5.277 0-2.279.477-4.337 1.441-6.123h0l.004-.007zM8.823 102.568h-.807l-.17.79-8.824 40.914-.26 1.211h14.615l.17-.788 6.428-29.663h12.4l-6.298 29.24-.26 1.211H40.47l.17-.788 8.862-40.915.263-1.212H8.823z"/></g><defs><clipPath id="clip0"><path fill="#fff" d="M0 0h200v200H0z"/></clipPath></defs></svg>