<svg width="200" height="200" fill="none" xmlns="http://www.w3.org/2000/svg"><g clip-path="url(#clip0)"><path d="M50.633 79.783c3.397 0 6.698.39 9.868 1.131v3.604a39.742 39.742 0 00-9.868-1.238c-10.96 0-20.89 4.45-28.075 11.633-7.19 7.185-11.633 17.114-11.633 28.08 0 10.96 4.443 20.89 11.633 28.075 7.185 7.183 17.114 11.632 28.075 11.632 10.966 0 20.89-4.449 28.078-11.632 6.99-6.989 11.388-16.577 11.624-27.19h3.497c-.23 11.579-5.02 22.04-12.645 29.663-7.819 7.82-18.621 12.659-30.554 12.659-11.93 0-22.73-4.839-30.55-12.659s-12.659-18.622-12.659-30.55c0-11.934 4.84-22.735 12.66-30.555 7.818-7.82 18.62-12.653 30.549-12.653zM67.5 97.25V43.628c0-5.42 2.2-10.326 5.752-13.877A19.564 19.564 0 0187.128 24h93.251a19.569 19.569 0 0113.877 5.75 19.583 19.583 0 015.746 13.878V97.25a19.572 19.572 0 01-5.746 13.877 19.568 19.568 0 01-13.877 5.746h-5.851l5.175 30.224a1.747 1.747 0 01-1.428 2.019 1.763 1.763 0 01-1.533-.495l-33.996-31.748H87.128a19.55 19.55 0 01-13.876-5.746A19.562 19.562 0 0167.5 97.251zm99.33-11.35h-9.653a1.755 1.755 0 01-1.753-1.753l.005-.125-.026-1.744v-.01l-.009-.976v-.01h-.005c0-3.761.57-6.903 1.708-9.413.575-1.277 1.432-2.615 2.57-4.013 1.097-1.353 2.449-2.764 4.058-4.243l.095-.085a106.955 106.955 0 003.567-3.387c.852-.857 1.397-1.457 1.627-1.807l.01-.01a6.274 6.274 0 00.826-1.708v-.004a6.49 6.49 0 00.271-1.906c0-.947-.161-1.802-.481-2.584-.325-.782-.822-1.513-1.488-2.184l-.005-.01a6.302 6.302 0 00-2.273-1.457c-.908-.336-1.96-.506-3.167-.506-1.147 0-2.18.18-3.097.53a7.407 7.407 0 00-2.479 1.587c-.751.716-1.394 1.644-1.929 2.772-.561 1.192-1.001 2.606-1.317 4.234a1.739 1.739 0 01-1.999 1.392l-9.714-1.357a1.756 1.756 0 01-1.502-1.874c.156-2.736.751-5.28 1.793-7.626 1.052-2.368 2.549-4.519 4.483-6.447a19.328 19.328 0 016.819-4.394c2.549-.962 5.374-1.447 8.491-1.447 3.253 0 6.192.485 8.817 1.463a19.34 19.34 0 016.993 4.453c1.968 1.96 3.447 4.09 4.439 6.383.997 2.314 1.497 4.79 1.497 7.418 0 1.458-.185 2.89-.556 4.288a17.743 17.743 0 01-1.658 4.063l-.056.09c-.731 1.272-1.833 2.746-3.301 4.414-1.438 1.627-3.267 3.481-5.486 5.554l.005.005c-1.078 1.006-1.939 1.909-2.58 2.686-.596.716-.992 1.322-1.196 1.797-.201.482-.356 1.214-.462 2.19-.116 1.087-.166 2.42-.14 3.987.01.962-.76 1.754-1.724 1.763h-.019v.01h.001zm-59.088-49.28c4.061 0 7.75 1.649 10.415 4.313l.094.111a14.678 14.678 0 014.219 10.304 14.68 14.68 0 01-4.313 10.41l-.01.01a14.698 14.698 0 01-10.406 4.315 14.7 14.7 0 01-10.41-4.315l-.01-.01a14.7 14.7 0 01-4.314-10.41c0-4.057 1.65-7.733 4.319-10.405v-.005l.004-.005.005-.004a14.706 14.706 0 0110.407-4.309zm7.939 6.788a11.213 11.213 0 00-7.939-3.285 11.178 11.178 0 00-7.94 3.28l-.01.005a11.193 11.193 0 00-3.281 7.94c0 3.107 1.257 5.918 3.285 7.946a11.2 11.2 0 007.946 3.286 11.2 11.2 0 007.939-3.286 11.179 11.179 0 003.286-7.945c0-3.06-1.218-5.832-3.196-7.855l-.09-.086zm-29.478 57.391h4.924v-15.9a1.751 1.751 0 013.502 0v15.9h25.004V84.416c0-.967.782-1.754 1.748-1.754s1.748.787 1.748 1.754v16.382h6.142V77.783a7.671 7.671 0 00-2.255-5.425h-.005a7.668 7.668 0 00-5.43-2.26h-5.868l-7.249 18.186c-.156.45-.495.841-.966 1.042a1.75 1.75 0 01-2.295-.921l-7.785-18.306H93.89a7.675 7.675 0 00-5.432 2.26l-.085.08a7.66 7.66 0 00-2.175 5.347V100.8l.004-.001v-.001zm25.76-30.7H101.21l5.55 13.046 5.201-13.045h.001zM131.02 104.3H84.456a1.755 1.755 0 01-1.754-1.753V77.783c0-3.015 1.218-5.77 3.19-7.795l.096-.104a11.18 11.18 0 017.904-3.281h27.689a11.18 11.18 0 017.905 3.28l-.005.006c2.029 2.029 3.292 4.83 3.292 7.894v24.763c0 .967-.787 1.753-1.753 1.753zm27.868-21.901h6.203a26.99 26.99 0 01.15-2.63c.139-1.313.38-2.369.721-3.172.337-.796.912-1.689 1.713-2.66.751-.912 1.712-1.919 2.885-3.015v.005l.005-.005c2.108-1.974 3.863-3.753 5.256-5.326 1.307-1.487 2.269-2.759 2.876-3.817l.04-.076a14.063 14.063 0 001.326-3.252c.292-1.092.436-2.23.436-3.402 0-2.153-.4-4.168-1.207-6.035-.817-1.894-2.049-3.658-3.688-5.29a15.847 15.847 0 00-5.737-3.648c-2.234-.827-4.775-1.244-7.615-1.244-2.706 0-5.126.407-7.265 1.218a15.78 15.78 0 00-5.585 3.598c-1.633 1.627-2.886 3.421-3.757 5.38a17.361 17.361 0 00-1.348 4.859l6.519.916c.33-1.267.735-2.414 1.221-3.441.723-1.518 1.609-2.785 2.67-3.802l.005-.005a11.046 11.046 0 013.647-2.32c1.343-.511 2.796-.771 4.344-.771 1.604 0 3.061.245 4.385.736a9.767 9.767 0 013.537 2.27l.005.01c.987.996 1.733 2.098 2.233 3.311.5 1.221.756 2.524.756 3.913a9.975 9.975 0 01-.436 2.93 9.947 9.947 0 01-1.281 2.655c-.365.536-1.048 1.308-2.045 2.31-.897.907-2.129 2.068-3.681 3.491l-.09.09c-1.497 1.38-2.735 2.67-3.717 3.874-.936 1.157-1.632 2.238-2.094 3.251V73.3l-.005.01c-.921 2.028-1.387 4.69-1.387 7.97h-.005l.009.947v.171h.001zm-3.467 20.059V90.473c0-.967.786-1.753 1.754-1.753h10.636c.966 0 1.752.786 1.752 1.753v11.984a1.75 1.75 0 01-1.752 1.748h-10.636a1.751 1.751 0 01-1.754-1.748zm3.503-10.236v8.483h7.14v-8.483h-7.14zm-87.92-48.593V97.25c0 4.454 1.806 8.488 4.723 11.404a16.083 16.083 0 0011.403 4.723h56.3v.005c.426 0 .852.156 1.187.467l30.769 28.73-4.638-27.067a1.914 1.914 0 01-.04-.387c0-.966.782-1.748 1.748-1.748h7.926c4.448 0 8.482-1.808 11.403-4.723a16.078 16.078 0 004.723-11.404V43.628a16.08 16.08 0 00-4.723-11.403 16.1 16.1 0 00-11.403-4.724h-93.25a16.077 16.077 0 00-11.403 4.724 16.074 16.074 0 00-4.725 11.403zm-20.331 93.625c1.797 0 3.432.737 4.613 1.915l.1.111a6.516 6.516 0 01-.1 9.122l-.11.099a6.503 6.503 0 01-9.118-.104v.005a6.515 6.515 0 01-1.913-4.62 6.5 6.5 0 011.913-4.608v-.005a6.494 6.494 0 014.615-1.915zm2.14 4.389a3.026 3.026 0 00-4.278 0l-.005-.004a3.028 3.028 0 00-.88 2.143c0 .837.34 1.6.885 2.144h-.005l.005.005a2.993 2.993 0 002.139.882c.8 0 1.528-.311 2.068-.813l.071-.075a3.028 3.028 0 00.074-4.207l-.075-.076.001.001zm-2.18-51.067c1.749 0 3.353.61 4.526 1.598 1.256 1.057 2.043 2.539 2.043 4.192v31.382c0 1.653-.787 3.137-2.043 4.193-1.173.982-2.777 1.599-4.525 1.599-1.743 0-3.347-.617-4.52-1.599-1.262-1.056-2.044-2.54-2.044-4.193V96.365c0-1.653.782-3.135 2.045-4.192 1.172-.988 2.776-1.598 4.519-1.598zm2.28 4.278c-.566-.481-1.372-.778-2.28-.778-.902 0-1.707.297-2.278.778-.481.405-.781.942-.781 1.513v31.381c0 .571.3 1.106.782 1.514.57.481 1.378.776 2.278.776.902 0 1.712-.295 2.28-.776.485-.406.786-.943.786-1.514V96.365c0-.57-.301-1.106-.787-1.512zm-16.307 72.58a46.16 46.16 0 006.948 1.632c2.335.356 4.69.527 7.159.527 12.995 0 24.759-5.271 33.274-13.787 8.222-8.222 13.416-19.473 13.767-31.926h3.501c-.351 13.422-5.936 25.545-14.793 34.402-9.148 9.147-21.792 14.809-35.749 14.809a50.16 50.16 0 01-7.68-.566 49.228 49.228 0 01-7.194-1.68l-33.8 5.837a1.74 1.74 0 01-1.613-.581 1.744 1.744 0 01.175-2.459l16.006-13.798A50.78 50.78 0 014.86 143.817a50.384 50.384 0 01-4.705-21.286c0-13.956 5.661-26.601 14.81-35.749 9.153-9.153 21.792-14.815 35.749-14.815 3.347 0 6.623.325 9.789.952v3.573a47.097 47.097 0 00-9.789-1.021c-12.99 0-24.759 5.27-33.274 13.785-8.516 8.517-13.786 20.28-13.786 33.275a46.895 46.895 0 004.377 19.824 47.138 47.138 0 0012.353 16.171c.737.622.832 1.719.216 2.455a1.71 1.71 0 01-.195.195l.005.004-12.75 10.982 27.99-4.835c.336-.054.665-.014.956.105v.001z" fill="url(#paintMobile_linear)"/></g><defs><linearGradient id="paintMobile_linear" x1="0" y1="47" x2="147.309" y2="239.936" gradientUnits="userSpaceOnUse"><stop stop-color="#8BC4C1"/><stop offset=".7" stop-color="#0093DD"/><stop offset="1" stop-color="#23164D"/></linearGradient><clipPath id="clip0"><path fill="#fff" d="M0 0h200v200H0z"/></clipPath></defs></svg>