<svg width="200" height="200" fill="none" xmlns="http://www.w3.org/2000/svg"><path d="M100 0C44.766 0 0 44.766 0 100s44.766 100 100 100 100-44.766 100-100S155.234 0 100 0zm0 183.398c-7.031 0-15.156-7.578-21.719-20.312-2.11-4.102-4.023-8.594-5.664-13.438 8.711 1.29 17.89 1.954 27.383 1.954 9.492 0 18.672-.664 27.383-1.954-1.641 4.844-3.555 9.336-5.664 13.438-6.563 12.734-14.688 20.312-21.719 20.312zM16.602 100c0-7.07 7.578-15.156 20.312-21.719 4.102-2.11 8.594-4.023 13.438-5.664-1.29 8.711-1.954 17.89-1.954 27.383 0 9.492.664 18.672 1.954 27.383-4.844-1.641-9.336-3.555-13.438-5.664C24.18 115.156 16.602 107.031 16.602 100zM100 16.602c7.031 0 15.156 7.578 21.719 20.312 2.109 4.102 4.023 8.594 5.664 13.438-8.711-1.29-17.891-1.954-27.383-1.954s-18.672.664-27.383 1.954a98.473 98.473 0 015.664-13.438C84.844 24.18 92.97 16.602 100 16.602zM100 135c-11.094 0-21.836-1.016-32.031-2.969C65.977 121.836 65 111.094 65 100c0-11.094 1.016-21.836 2.969-32.031C78.164 65.977 88.906 65 100 65c11.094 0 21.836 1.016 32.031 2.969C134.023 78.164 135 88.906 135 100c0 11.094-1.016 21.836-2.969 32.031C121.836 133.984 111.094 135 100 135zm49.648-62.383a98.473 98.473 0 0113.438 5.664c12.695 6.563 20.312 14.688 20.312 21.719 0 7.031-7.578 15.156-20.312 21.719-4.102 2.109-8.594 4.023-13.438 5.664 1.29-8.711 1.954-17.891 1.954-27.383s-.664-18.672-1.954-27.383zm-3.789-18.476c-3.164-11.797-7.461-22.188-12.656-30.664 9.492 4.14 18.203 10.039 25.742 17.578 7.539 7.539 13.438 16.25 17.578 25.742-8.437-5.195-18.867-9.531-30.664-12.656zM66.797 23.477c-5.195 8.476-9.531 18.867-12.656 30.664-11.797 3.164-22.188 7.46-30.664 12.656 4.14-9.492 10.039-18.203 17.578-25.742 7.5-7.54 16.25-13.477 25.742-17.578zM54.14 145.859c3.164 11.797 7.46 22.188 12.656 30.664-9.492-4.14-18.203-10.039-25.742-17.578-7.54-7.539-13.438-16.25-17.578-25.742 8.476 5.195 18.867 9.531 30.664 12.656zm79.062 30.664c5.195-8.476 9.531-18.867 12.656-30.664 11.797-3.164 22.188-7.461 30.664-12.656-4.14 9.492-10.039 18.203-17.578 25.742-7.539 7.539-16.25 13.477-25.742 17.578z" fill="url(#paintMobile_linear)"/><defs><linearGradient id="paintMobile_linear" x1="0" y1="47" x2="147.309" y2="239.936" gradientUnits="userSpaceOnUse"><stop stop-color="#8BC4C1"/><stop offset=".7" stop-color="#0093DD"/><stop offset="1" stop-color="#23164D"/></linearGradient></defs></svg>