<svg width="200" height="200" fill="none" xmlns="http://www.w3.org/2000/svg"><path d="M36.597 23.895a19.416 19.416 0 0113.77 5.704 19.412 19.412 0 015.706 13.77 19.415 19.415 0 01-5.706 13.77 19.416 19.416 0 01-13.77 5.705 19.416 19.416 0 01-13.769-5.705 19.415 19.415 0 01-5.706-13.77 19.412 19.412 0 015.706-13.77 19.416 19.416 0 0113.77-5.704zM56.65 97.463h10.185V79.608a11.22 11.22 0 00-3.308-7.946 11.222 11.222 0 00-7.947-3.308h-4.09c0 4.111-1.67 7.835-4.363 10.53a14.844 14.844 0 01-10.529 4.36 14.844 14.844 0 01-10.528-4.36 14.847 14.847 0 01-4.362-10.53h-4.09a11.218 11.218 0 00-7.947 3.308 11.218 11.218 0 00-3.309 7.946v13.015h8.892v-3.267a1.681 1.681 0 013.361 0v22.516h34.674V95.658a1.681 1.681 0 013.361 0v1.805zm13.546 1.595l.002.086-.002.087v3.171a25.348 25.348 0 00-3.361 1.06v-2.638H56.649v9.959a25.678 25.678 0 00-3.361 5.104v-.654H4.68a1.682 1.682 0 01-1.681-1.681V79.608a14.57 14.57 0 014.292-10.322c2.648-2.648 6.305-4.294 10.324-4.294H55.58c4.022 0 7.677 1.646 10.324 4.294a14.57 14.57 0 014.292 10.322v19.45zm-54.942-3.074H6.36v15.888h8.892V95.984zm9.815-27.63c0 3.183 1.292 6.067 3.378 8.152a11.495 11.495 0 008.151 3.377c3.184 0 6.067-1.292 8.152-3.377a11.493 11.493 0 003.378-8.152h-23.06zM47.99 31.976a16.065 16.065 0 00-11.393-4.721 16.069 16.069 0 00-11.393 4.72 16.067 16.067 0 00-4.72 11.394c0 4.449 1.806 8.479 4.72 11.394a16.064 16.064 0 0011.393 4.72c4.45 0 8.478-1.805 11.393-4.72a16.063 16.063 0 004.721-11.394c0-4.448-1.805-8.478-4.72-11.393zm116.138-8.081a19.412 19.412 0 0113.769 5.704l.094.1a19.412 19.412 0 015.612 13.67c0 5.37-2.181 10.239-5.709 13.767l.003.003a19.412 19.412 0 01-13.769 5.705 19.412 19.412 0 01-13.769-5.705l-.094-.102a19.41 19.41 0 01-5.612-13.668c0-5.37 2.181-10.238 5.708-13.766l-.002-.004a19.414 19.414 0 0113.769-5.704zM154.1 68.354l8.712 20.475 8.168-20.475H154.1zm20.485 0l-10.136 25.412a1.678 1.678 0 01-3.131.117l-10.861-25.53h-5.31a11.222 11.222 0 00-7.948 3.309 11.22 11.22 0 00-3.307 7.946v23.214a25.231 25.231 0 00-3.361-.788V79.608a14.57 14.57 0 014.292-10.322 14.569 14.569 0 0110.324-4.294h37.962c4.021 0 7.676 1.646 10.324 4.294 2.647 2.646 4.293 6.302 4.293 10.322v33.944c0 .928-.754 1.681-1.681 1.681h-47.121a25.705 25.705 0 00-2.151-3.361h34.378V88.696a1.682 1.682 0 013.362 0v23.176h9.851V79.609a11.22 11.22 0 00-3.307-7.947 11.221 11.221 0 00-7.947-3.308h-8.525zm-32.507 38.749V95.658a1.68 1.68 0 013.361 0v14.594a25.748 25.748 0 00-3.361-3.149zm33.443-75.127a16.065 16.065 0 00-11.393-4.721 16.065 16.065 0 00-11.393 4.72l-.003-.003-.004.004a16.063 16.063 0 00-4.714 11.393c0 4.412 1.77 8.41 4.635 11.313l.086.08a16.065 16.065 0 0011.393 4.72 16.06 16.06 0 0011.393-4.72l.003.004.004-.003a16.066 16.066 0 004.714-11.394c0-4.413-1.77-8.41-4.635-11.313l-.086-.08zM60.704 172.888h81.141v-45.662c0-4.25-1.735-8.111-4.53-10.905l-.007-.008a15.393 15.393 0 00-10.906-4.53H76.147c-4.248 0-8.109 1.736-10.909 4.534l.004.004c-2.8 2.799-4.538 6.66-4.538 10.905v45.662zm82.822 3.361H59.023a1.68 1.68 0 01-1.68-1.68v-47.343c0-5.172 2.116-9.877 5.522-13.282l.004.003.002-.003c3.408-3.407 8.108-5.523 13.276-5.523h50.255c5.163 0 9.861 2.113 13.271 5.518l.005.005.002.003.004.003c3.409 3.411 5.523 8.111 5.523 13.276v47.343c0 .927-.753 1.68-1.681 1.68z" fill="url(#paintMobile_linear)"/><path d="M78.517 110.725a1.676 1.676 0 113.113-1.247l20.28 50.639 18.997-50.6a1.675 1.675 0 012.153-.985 1.676 1.676 0 01.985 2.153l-20.493 54.586a1.676 1.676 0 01-3.149.101l-21.885-54.647zm-1.167 63.842a1.682 1.682 0 01-3.362 0v-37.986a1.681 1.681 0 113.361 0v37.986zm50.751 0a1.682 1.682 0 01-3.362 0v-37.986a1.682 1.682 0 013.362 0v37.986zM101.274 54.013a25.164 25.164 0 0117.846 7.392 25.16 25.16 0 017.392 17.844c0 6.969-2.826 13.28-7.392 17.846a25.163 25.163 0 01-17.846 7.392 25.159 25.159 0 01-17.844-7.392 25.162 25.162 0 01-7.392-17.846 25.16 25.16 0 017.392-17.844 25.16 25.16 0 0117.844-7.392zm15.469 9.769a21.812 21.812 0 00-15.469-6.408c-6.04 0-11.51 2.45-15.467 6.408a21.809 21.809 0 00-6.408 15.467 21.81 21.81 0 006.408 15.47 21.81 21.81 0 0015.467 6.407c6.04 0 11.511-2.45 15.469-6.408a21.81 21.81 0 006.408-15.469c0-6.04-2.45-11.51-6.408-15.467z" fill="url(#paintMobile_linear)"/><path d="M109.318 129.441l-8.043-5.791-8.042 5.791a1.68 1.68 0 01-2.777-1.274v-13.16h.007a1.672 1.672 0 012.652-1.358l8.16 5.876 8.162-5.876a1.674 1.674 0 012.651 1.358h.007v13.16a1.68 1.68 0 01-2.777 1.274zm-10.908-7.854l-4.592-3.306v6.613l4.592-3.307zm5.731 0l4.593 3.307v-6.613l-4.593 3.306z" fill="url(#paintMobile_linear)"/><defs><linearGradient id="paintMobile_linear" x1="0" y1="47" x2="147.309" y2="239.936" gradientUnits="userSpaceOnUse"><stop stop-color="#8BC4C1"/><stop offset=".7" stop-color="#0093DD"/><stop offset="1" stop-color="#23164D"/></linearGradient></defs></svg>