<svg xmlns="http://www.w3.org/2000/svg" width="200" height="200" shape-rendering="geometricPrecision" text-rendering="geometricPrecision" image-rendering="optimizeQuality" fill-rule="evenodd" clip-rule="evenodd" viewBox="0 0 200.001 200"><path fill="none" d="M0 0h200v200H0z"/><path fill="#23164D" d="M134.297 125.786c-1.094.703-2.226 1.054-3.475 1.054-1.561 0-3.045-.351-4.333-.937l-2.148 9.994c.625.39 1.562.664 2.85.898 1.249.234 2.46.391 3.631.391 3.865 0 7.223-.938 10.073-2.889 2.849-1.913 5.934-5.388 9.251-10.385l18.662-28.383H154.91s-6.559 11.245-8.667 14.68l-3.123-14.68h-13.742l7.807 27.368c-.82 1.21-1.795 2.186-2.888 2.889z"/><path fill="#8BC4C1" d="M174.82 86.746c-2.303-15.265-3.63-31.271-3.006-46.496-16.71 11.321-33.847 27.054-46.067 46.496h49.073z"/><path fill="#0093DD" d="M172.009 30.255l8.55-4.958-.82 9.253c-1.054 11.79-.585 24.83.781 38.025 2.186-20.028 5.856-40.016 11.868-57.467 0 0-62.854 12.61-104.393 71.638h27.601c21.785-36.112 54.421-55.32 56.413-56.49zm3.084 146.556c-56.1-2.655-78.43-22.565-78.43-22.565s1.678-6.91 1.795-8.94H60.629a227.849 227.849 0 00-1.327 4.997s27.796 34.277 121.024 34.59c0 0-.274-2.85-.664-7.965-1.563.039-3.045-.039-4.569-.117z"/><path fill="#8BC4C1" d="M181.223 145.97c-7.417 0-14.679-1.874-20.223-6.989-2.381-2.225-4.178-4.762-5.426-7.534-2.772 3.865-6.013 7.612-9.8 10.19-4.49 3.005-9.603 4.372-14.99 4.372-1.758 0-3.553-.196-5.272-.508-5.465-1.092-10.228-4.294-14.99-7.847l-2.617 13.078s27.954 20.77 87.645 17.803c0 0-4.294-12.453-7.379-22.995-2.303.273-4.645.43-6.948.43z"/><path fill="#23164D" d="M103.065 123.327h6.012c3.825 0 7.144-.625 9.955-1.796 2.81-1.172 5.036-3.006 6.598-5.388 1.562-2.382 2.381-5.153 2.381-8.238 0-3.981-1.25-7.026-3.747-9.173-2.539-2.148-6.13-3.202-10.815-3.202H96.545l-8.862 40.914h12.61l2.772-13.117zm4.137-18.934h2.226c1.68 0 2.968.39 3.865 1.131.898.78 1.328 1.797 1.328 3.241 0 1.678-.586 3.045-1.68 4.138-1.092 1.093-2.576 1.601-4.372 1.601l-3.514-.001 2.147-10.11zm-34.783 24.516l.625 7.535h12.843l-4.723-40.953H65.508l-23.229 40.953h13.86l3.748-7.535H72.42zm-1.367-23.97h.273c-.078.585.43 14.366.43 14.366h-7.456l6.753-14.367zm123.952-9.682c-1.952-.273-3.866-.43-5.622-.43-5.505 0-10.345.938-14.406 2.889-4.099 1.952-7.3 4.841-9.565 8.706-2.303 3.866-3.436 8.238-3.436 13.196 0 5.465 1.68 9.799 4.998 12.883 3.319 3.084 8.08 4.646 14.25 4.646 3.67 0 6.987-.508 10.033-1.601l2.537-11.282a28.752 28.752 0 01-4.763 1.717c-1.6.43-3.084.625-4.412.625-3.005 0-5.23-.703-6.792-2.147-1.562-1.445-2.381-3.436-2.381-6.012 0-2.42.508-4.646 1.561-6.598 1.054-1.991 2.537-3.514 4.49-4.645 1.952-1.094 4.255-1.68 6.871-1.68 2.03 0 3.748.195 5.154.586 1.444.39 2.731.859 3.903 1.367l2.577-11.284c-1.366-.311-3.046-.624-4.997-.936zm-186.181.312L0 136.483h12.57l6.598-30.451h14.445l-6.558 30.451h12.61l8.861-40.915z"/></svg>