<svg width="200" height="200" fill="none" xmlns="http://www.w3.org/2000/svg"><path d="M44.11 63.041c-.545 33.681 25.708 56.891 31.385 61.515 5.293-4.733 29.097-27.904 28.55-61.515-.248-15.641-7.7-25.545-17.264-29.934-3.896-1.785-8.155-2.665-12.424-2.652-4.26.014-8.534.924-12.469 2.718-9.816 4.48-17.527 14.498-17.775 29.867l-.002.001zm67.675 44.249a1.709 1.709 0 01-.899-.173l-7.362-3.623-.024-.015a94.626 94.626 0 001.522-3.039l.009.005 6.893 3.395 18.591-45.046-17.915-4.979a48.15 48.15 0 00-.881-3.77l21.54 5.986.037.01 9.664 2.685.005.005.042.01 9.669 2.685 44.828-20.241A1.703 1.703 0 01200 42.693v108.015c0 .727-.461 1.35-1.102 1.593l-45.385 20.495a1.71 1.71 0 01-1.22.066l-54.34-15.106-54.157 14.617c-.161.058-.34.086-.526.086a1.75 1.75 0 01-.637-.124l-41.48-14.153A1.698 1.698 0 010 156.575V48.56a1.702 1.702 0 012.347-1.58l32.576 11.113a53.267 53.267 0 00-.26 3.508L3.409 50.937v104.42l38.156 13.019V95.609a92.417 92.417 0 003.408 6.821v66.099l51.276-13.843v-22.564a1.705 1.705 0 013.41 0V154.7l53.018 14.738 22.065-9.966-22.012-20.463-54.627-26.44a89.677 89.677 0 001.853-2.881l54.483 26.372c.173.082.326.192.455.32l23.21 21.572 6.792-3.069-29.737-26.573-33.691-17.016-.039-.019-.039-.019-.072-.043v-.004l-.034-.019-.005-.005-.033-.018v-.004l-.035-.019v-.005l-.034-.025-.029-.025-.066-.056a2.149 2.149 0 01-.168-.177l-.005-.005-.019-.03-.005-.004a1.71 1.71 0 01-.172-.273l-.005-.005-.014-.029v-.01l-.013-.028-.005-.01-.043-.105v-.005l-.01-.034-.004-.008-.01-.03-.003-.009-.019-.066v-.01l-.01-.034-.014-.077-.005-.009-.004-.034v-.005l-.004-.033v-.01l-.005-.034-.004-.039v-.052l-.005-.029v-.091l.005-.077v-.005l.004-.039v-.047l.005-.034v-.005l.008-.039.025-.124v-.005l.01-.039.014-.039v-.004l.009-.038.013-.039v-.005l.014-.038.019-.043.019-.044 19.547-47.6-6.413-1.78-19.365 46.917a1.703 1.703 0 01-2.217.929 2.04 2.04 0 01-.446-.268l-.002.008zm84.805-61.96l-42.072 18.997v31.61a1.706 1.706 0 01-3.41 0V64.526l-7.587-2.111-19.125 46.561 32.479 16.408c.129.066.253.149.369.249l31.029 27.732 8.314-3.751V45.334l.003-.003zm-44.298 127.534a1.705 1.705 0 01-1.029-.92l1.029.92zM74.077 43.152c4.553 0 8.673 1.849 11.665 4.836l.004.004.005.005.005.004a16.446 16.446 0 014.83 11.66 16.45 16.45 0 01-4.835 11.664l-.01.005a16.447 16.447 0 01-11.664 4.835 16.468 16.468 0 01-11.664-4.835l-.005-.005-.004-.005a16.461 16.461 0 01-4.835-11.66c0-4.551 1.848-8.677 4.839-11.663v-.005l.005-.004.005-.005a16.45 16.45 0 0111.66-4.83zm9.262 7.237a13.054 13.054 0 00-9.262-3.83 13.062 13.062 0 00-9.262 3.83l-.005.01a13.04 13.04 0 00-3.834 9.261c0 3.62 1.465 6.893 3.834 9.263l.005.004a13.057 13.057 0 009.262 3.83c3.624 0 6.898-1.464 9.267-3.83a13.072 13.072 0 003.834-9.267c0-3.623-1.465-6.896-3.83-9.262l-.009-.01zm-9.262-12.147a21.349 21.349 0 0115.14 6.276v.004l.005-.004a21.351 21.351 0 016.276 15.145 21.33 21.33 0 01-6.276 15.14l-.105.095a21.34 21.34 0 01-15.039 6.178 21.326 21.326 0 01-15.139-6.275 21.342 21.342 0 01-6.276-15.14 21.338 21.338 0 016.276-15.145 21.332 21.332 0 0115.14-6.276l-.002.002zm12.737 8.683a17.948 17.948 0 00-12.737-5.275c-4.973 0-9.472 2.02-12.732 5.275a17.957 17.957 0 00-5.274 12.736c0 4.968 2.015 9.472 5.274 12.732a17.964 17.964 0 0012.732 5.275c4.936 0 9.402-1.981 12.654-5.189l.083-.086a17.972 17.972 0 005.274-12.733c0-4.973-2.019-9.475-5.274-12.735zm-12.29 81.195c-.1-.076-34.445-25.679-33.807-65.131.273-16.873 8.845-27.925 19.759-32.902a33.864 33.864 0 0113.881-3.03c4.743-.014 9.486.968 13.838 2.964 10.664 4.892 18.973 15.82 19.246 32.97.638 39.118-30.255 64.63-30.795 65.074a1.71 1.71 0 01-2.12.058l-.002-.002v-.001z" fill="url(#paint0_linear)"/><defs><linearGradient id="paint0_linear" x1="-.002" y1="63.686" x2="147.306" y2="256.625" gradientUnits="userSpaceOnUse"><stop stop-color="#8BC4C1"/><stop offset=".7" stop-color="#0093DD"/><stop offset="1" stop-color="#23164D"/></linearGradient></defs></svg>