<svg width="200" height="200" fill="none" xmlns="http://www.w3.org/2000/svg"><path d="M1.71 157.603H200v9.561a9.544 9.544 0 01-2.81 6.757h-.005a9.518 9.518 0 01-6.745 2.81H9.562a9.544 9.544 0 01-6.758-2.81A9.554 9.554 0 010 167.164v-9.561h1.71zm54.015-129.09c2.12 2.023 4.043 4.587 5.71 7.578.841 1.5 1.616 3.12 2.321 4.833 2.704-.876 5.197-1.92 7.432-3.106a39.05 39.05 0 00-15.463-9.305zm18.512 7.522l.015-.004.336.372c6.747 7.06 11.083 16.444 11.692 26.832l.014.25.014.248.01.251.01.242v.01l.005.25.01.252v.251l.004.212v.04l.005.256v.492l-.005.233v.241l-.004.238-.005.236-.01.233-.015.473v.005l-.014.231-.01.238-.014.236c-.578 9.587-4.341 18.317-10.236 25.155l-.564.67-.02-.014a41.898 41.898 0 01-1.545 1.63c-7.689 7.689-18.31 12.446-30.042 12.446-11.731 0-22.355-4.757-30.043-12.446a40.249 40.249 0 01-1.545-1.63l-.019.014-.583-.7a42.278 42.278 0 01-10.04-23.023l-.026-.236-.045-.463-.02-.196-.005-.035-.014-.238-.019-.231-.015-.238-.019-.231-.005-.107-.01-.126-.009-.236-.01-.18-.005-.055-.014-.448-.005-.026v-.015l-.004-.22-.01-.233-.005-.09v-.146l-.006-.237-.004-.165v-.309l-.005-.242.005-.25v-.297l.004-.211.006-.252v-.08l.01-.171.01-.377.009-.125.004-.252.01-.166.006-.08.014-.252.01-.21.004-.047.014-.24.016-.252h.004l.02-.252.013-.247.076-.739.026-.252.03-.245.031-.242C2.848 51.207 7.002 42.84 13.16 36.4l.332-.362.01.005.326-.328c7.69-7.693 18.312-12.446 30.043-12.446 11.73 0 22.355 4.753 30.043 12.446l.327.328-.004-.008zm-1.695 56.26c-2.378-1.396-5.082-2.613-8.047-3.62a47.722 47.722 0 01-3.062 6.74c-1.665 2.987-3.59 5.545-5.71 7.573a39.015 39.015 0 0015.768-9.61c.358-.354.706-.716 1.048-1.084h.002zM32.005 102.99c-2.113-2.029-4.042-4.587-5.705-7.573-1.147-2.054-2.171-4.315-3.057-6.74-2.97 1.006-5.674 2.223-8.056 3.62.342.367.694.73 1.047 1.083a39.066 39.066 0 0015.77 9.61zM16.549 37.818c2.234 1.187 4.726 2.23 7.43 3.106a46.349 46.349 0 012.322-4.833c1.66-2.99 3.59-5.555 5.705-7.578a39.018 39.018 0 00-15.456 9.305h-.002zm-2.402 2.567a38.933 38.933 0 00-9.153 21.37l-.005.049-.036.402-.004.04-.03.368-.01.131-.005.07-.014.202-.016.206v.015l-.024.498-.006.1-.01.206H19.44c.162-7.256 1.365-14.053 3.353-19.923-3.168-1.032-6.067-2.291-8.645-3.736v.002zM4.832 67.458c.01.256.019.514.04.765v.035l.035.499v.035l.036.372.005.09.009.1.035.373v.014a38.852 38.852 0 007.966 19.913c2.699-1.637 5.8-3.056 9.208-4.215-1.611-5.407-2.582-11.516-2.729-17.985H4.832v.004zm69.945 22.199l.116-.151V89.5l.111-.147.111-.146.066-.08.051-.073.443-.608.059-.08.268-.378v-.005a38.899 38.899 0 006.63-17.258v-.056l.026-.191.026-.18.004-.06.014-.13.031-.31.005-.053v-.015l.02-.186.019-.188.014-.1.005-.09.015-.187.014-.186.01-.147v-.045l.014-.188.01-.156v-.035l.015-.191.01-.193.004-.075.005-.111.01-.196H68.291c-.147 6.469-1.118 12.576-2.735 17.983 3.415 1.159 6.517 2.579 9.215 4.216h.005zm7.718-29.858a38.994 38.994 0 00-8.907-19.415c-2.577 1.446-5.483 2.704-8.639 3.731 1.983 5.878 3.187 12.668 3.347 19.928h14.61l-.009-.205-.004-.1-.005-.107-.014-.2-.01-.193v-.014l-.015-.207-.014-.201-.014-.202-.02-.206-.005-.161-.01-.04-.019-.201-.02-.202-.004-.05-.01-.151-.026-.202-.014-.135-.005-.066-.01-.046-.04-.352v-.026l-.025-.18-.118-.797zm-36.92-32.993V43.87c5.08-.122 9.903-.77 14.293-1.844l.595-.151a41.833 41.833 0 00-2-4.134c-3.423-6.132-7.94-10.17-12.889-10.936v.001zm0 20.477v16.763h19.308c-.166-6.943-1.314-13.414-3.208-18.962a47.1 47.1 0 01-.993.247c-4.662 1.147-9.762 1.832-15.11 1.952h.002zm0 20.175v14.617c5.669.12 11.066.89 15.96 2.165l.77.207c1.516-5.086 2.432-10.851 2.578-16.988H45.574v-.001zm0 18.03v19.202c4.948-.761 9.465-4.799 12.889-10.936a43.55 43.55 0 002.77-6.072l-.55-.147c-4.606-1.198-9.712-1.919-15.11-2.049v.001zm-3.413 19.203V85.489c-5.398.13-10.504.851-15.105 2.049l-.555.148c.816 2.194 1.742 4.223 2.774 6.072 3.42 6.137 7.931 10.175 12.886 10.936v-.003zm0-22.616V67.458H22.858c.14 6.137 1.057 11.902 2.568 16.987l.775-.206c4.893-1.274 10.286-2.044 15.961-2.166v.002zm0-18.03V47.284c-5.348-.12-10.448-.805-15.116-1.952-.332-.08-.664-.16-.985-.247-1.893 5.549-3.047 12.02-3.208 18.962h19.309zm0-20.175V26.806c-4.955.766-9.467 4.804-12.886 10.936a42.529 42.529 0 00-2.004 4.134l.59.153c4.395 1.072 9.219 1.722 14.3 1.842v-.001zm76.649 36.21l10.308 31.151 5.08-6.495a1.7 1.7 0 012.602-.099l10.276 11.302 2.356-2.144 2.367-2.149-10.272-11.304a1.708 1.708 0 01.453-2.647l6.852-4.377-30.023-13.236.002-.001h-.001zm8.062 35.239l-12.507-37.817a1.706 1.706 0 012.306-2.099l36.447 16.076v.005a1.704 1.704 0 01.226 2.99l-7.93 5.067 10.053 11.072c.635.7.584 1.777-.111 2.408l-3.626 3.297-3.625 3.293a1.707 1.707 0 01-2.411-.111l-10.066-11.076-5.725 7.314c-.2.301-.502.544-.881.67a1.708 1.708 0 01-2.154-1.087l.003-.002h.001zm-37.182-72.34h90.689l.318.126h.005l.492.2.292.434.005.005.282.433v99.59l-.187.377v.005l-.251.509-.509.251h-.005l-.378.192H18.975l-.427-.287-.006-.005-.438-.292-.196-.492v-.005l-.125-.318v-33.931a47.567 47.567 0 003.413 1.853v30.06h157.165V46.398H91.243a51.826 51.826 0 00-1.55-3.42h-.001zm-5.49-8.706h95.859c2.865 0 5.474 1.173 7.362 3.062a10.417 10.417 0 013.06 7.362v98.688c0 2.865-1.177 5.473-3.06 7.361h-.01a10.392 10.392 0 01-7.351 3.057H19.495a10.4 10.4 0 01-7.361-3.057v-.009a10.362 10.362 0 01-3.062-7.35V103.26a50.543 50.543 0 003.42 2.904v37.223a6.98 6.98 0 002.053 4.944h.005a6.986 6.986 0 004.945 2.06h160.566a6.988 6.988 0 004.946-2.06v-.005a6.966 6.966 0 002.058-4.939v-98.69c0-1.923-.791-3.68-2.058-4.944a6.963 6.963 0 00-4.946-2.06H86.654a51.469 51.469 0 00-2.451-3.418l-.002-.002zm41.76 126.743v2.221c0 1.304-.238 2.523-.614 3.429-.569 1.365-1.526 2.206-2.73 2.206H77.389c-1.209 0-2.165-.841-2.73-2.206-.381-.906-.613-2.125-.613-3.429v-2.221H3.416v6.149a6.14 6.14 0 001.808 4.341 6.118 6.118 0 004.34 1.808h180.879a6.13 6.13 0 004.34-1.803v-.005a6.136 6.136 0 001.808-4.341v-6.149h-70.63zm-48.501 0v2.221c0 .856.135 1.606.348 2.12.01.02-.036.031-.1.041l-.135.059h44.861l-.136-.059c-.066-.01-.099-.02-.094-.041.21-.514.347-1.258.347-2.12v-2.221H77.46zm45.157 4.441c.228 0-.135-.026-.323-.059l.136.059h.187zm-45.226 0h.18l.135-.059c-.18.041-.549.059-.317.059h.002z" fill="url(#paintMobile_linear)"/><defs><linearGradient id="paintMobile_linear" x1="0" y1="47" x2="147.309" y2="239.936" gradientUnits="userSpaceOnUse"><stop stop-color="#8BC4C1"/><stop offset=".7" stop-color="#0093DD"/><stop offset="1" stop-color="#23164D"/></linearGradient></defs></svg>