<svg width="200" height="200" fill="none" xmlns="http://www.w3.org/2000/svg"><g filter="url(#filter0_f)"><circle cx="100" cy="100" r="77.5" stroke="#707070" stroke-width="5"/></g><path d="M121.752 83.272c0 2.496-.512 4.608-1.536 6.336-.96 1.728-1.632 2.88-2.016 3.456-.32.512-1.024 1.472-2.112 2.88-1.024 1.344-1.568 2.048-1.632 2.112l-6.432 6.624c-1.152 1.472-1.728 3.104-1.728 4.896v2.976h-12.48v-3.84c0-4.288 1.216-7.616 3.648-9.984l5.952-5.472c2.944-2.624 4.736-4.928 5.376-6.912.32-1.024.48-2.08.48-3.168 0-3.2-.64-5.312-1.92-6.336-1.216-1.024-3.296-1.536-6.24-1.536-2.88 0-5.024.544-6.432 1.632-1.408 1.088-2.112 3.232-2.112 6.432 0 3.136.992 6.208 2.976 9.216l-9.696 3.84c-2.048-2.496-3.488-4.672-4.32-6.528-.832-1.92-1.248-4.128-1.248-6.624 0-6.464 1.632-11.264 4.896-14.4 3.264-3.2 8.704-4.8 16.32-4.8 13.504 0 20.256 6.4 20.256 19.2zm-15.072 36.864c1.024.96 1.536 3.04 1.536 6.24s-.512 5.312-1.536 6.336c-.96 1.024-3.04 1.536-6.24 1.536s-5.312-.512-6.336-1.536-1.536-3.136-1.536-6.336.512-5.28 1.536-6.24c1.024-1.024 3.136-1.536 6.336-1.536s5.28.512 6.24 1.536z" fill="#707070"/><defs><filter id="filter0_f" x="16" y="16" width="168" height="168" filterUnits="userSpaceOnUse" color-interpolation-filters="sRGB"><feFlood flood-opacity="0" result="BackgroundImageFix"/><feBlend in="SourceGraphic" in2="BackgroundImageFix" result="shape"/><feGaussianBlur stdDeviation="2" result="effect1_foregroundBlur"/></filter></defs></svg>