<svg width="200" height="200" fill="none" xmlns="http://www.w3.org/2000/svg"><path d="M9.742 23.69h161.302a9.732 9.732 0 016.877 2.862h.004a9.714 9.714 0 012.862 6.881v57.404a84.48 84.48 0 00-3.478-.66V33.433a6.238 6.238 0 00-1.846-4.423v-.008a6.23 6.23 0 00-4.418-1.834H9.743a6.235 6.235 0 00-4.423 1.834v.008a6.234 6.234 0 00-1.843 4.423v90.678a6.26 6.26 0 001.838 4.424h.005a6.249 6.249 0 004.423 1.842h86.634v3.102l.007.375H9.743a9.725 9.725 0 01-6.881-2.861v-.009A9.71 9.71 0 010 124.113V33.436a9.736 9.736 0 012.862-6.886l.003.003a9.733 9.733 0 016.878-2.861l-.001-.002zm143.965 71.733c10.835 0 20.685 1.065 27.852 2.79 7.852 1.897 12.709 4.812 12.709 8.302v9.541c0 3.039-3.689 5.645-9.835 7.52.012.12.015.24.015.359v8.58c4.313.855 7.893 1.937 10.462 3.172 3.255 1.565 5.09 3.511 5.09 5.749v9.541c0 .801-.26 1.57-.749 2.304.086.134.166.265.236.397l.053.119c.301.607.46 1.235.46 1.876v9.54c0 3.491-4.863 6.407-12.714 8.298-7.162 1.727-17.012 2.797-27.85 2.797-10.833 0-20.685-1.07-27.847-2.797-7.852-1.891-12.709-4.807-12.709-8.298v-9.54c0-.682.174-1.347.512-1.987v-.008c.066-.132.145-.263.227-.397-.488-.734-.739-1.503-.739-2.304v-8.58a71.545 71.545 0 01-2.841-.619c-7.853-1.896-12.709-4.811-12.709-8.302v-9.541c0-1.862 1.238-3.505 3.49-4.89 1.575-.97 3.725-1.86 6.345-2.639a3.123 3.123 0 01-.016-.352v-9.54c0-3.49 4.857-6.406 12.708-8.302 7.162-1.727 17.018-2.792 27.851-2.792v.002h-.001zm42.817 65.044l-.104.066-.042.025-.066.038-.107.066-.042.025-.066.037-.107.067-.045.024-.066.038-.111.062-.05.029-.062.037-.115.059-.053.029-.063.037-.115.063-.058.029-.063.033-.119.058-.063.033-.058.03-.124.062-.066.029-.058.029-.128.063-.067.033-.059.025-.127.062-.075.033-.059.025-.128.059-.075.033-.058.025-.132.059-.083.037-.053.021-.136.058-.082.038-.053.021-.138.058-.09.038-.05.015-.141.058-.094.038-.05.021-.14.053-.099.037-.045.021-.149.053-.099.038-.046.015-.148.053-.108.042-.041.011-.152.054-.112.041-.037.012-.156.053-.116.04-.038.012-.155.049-.12.042-.038.012-.155.048-.129.041-.03.012-.16.05-.133.041-.028.007-.166.05-.136.041-.026.008-.166.049-.145.045-.021.004-.169.049-.149.041-.021.008-.17.045-.153.045-.015.004-.174.046-.157.045-.011.003-.178.045-.16.046h-.012l-.178.045-.171.045-.007.004-.178.041-.174.045h-.003l-.182.045-.182.046c-7.162 1.726-17.014 2.791-27.85 2.791-10.835 0-20.685-1.067-27.847-2.791l-.182-.046-.182-.045h-.003l-.174-.045-.178-.041-.009-.004-.169-.045-.178-.045h-.012l-.16-.046-.178-.045-.011-.003-.157-.045-.174-.046-.015-.004-.153-.045-.17-.045-.021-.008-.149-.041-.17-.049-.021-.004-.144-.045-.166-.049-.026-.008-.136-.041-.166-.05-.028-.007-.134-.041-.161-.05-.033-.012-.122-.041-.156-.048-.157-.054-.156-.049-.46-.16-.149-.053-.045-.012-.107-.041-.149-.053-.144-.053-.149-.058-.045-.017-.099-.036-.14-.053-.05-.022-.096-.037-.14-.058-.049-.017-.086-.036-.14-.058-.054-.022-.082-.037-.136-.058-.053-.022-.083-.037-.263-.115-.129-.059-.059-.025-.07-.033-.132-.062-.059-.025-.066-.033-.123-.063-.248-.119-.063-.03-.062-.033-.237-.119-.119-.063-.062-.036-.052-.03-.116-.062-.111-.062-.112-.062-.326-.191-.108-.066-.21-.128v4.75c0 1.672 3.836 3.436 10.036 4.932 6.886 1.656 16.447 2.685 27.046 2.685 10.603 0 20.164-1.03 27.05-2.685 6.199-1.494 10.037-3.258 10.037-4.932v-4.75l.001-.004zm-6.726-1.854l-.041.011-.177.05h-.005c-.73.215-1.494.417-2.288.607l-.734.174-.243.053-.045.012-.204.045-.145.029-.107.025-.248.053h-.004l-.251.053-.1.022-.157.033-.203.041-.053.012-.26.049-.053.012c-.326.066-.656.129-.996.194l-.496.091-.136.021-.248.045-.07.012-.315.053-.008.005-.38.061-.268.046-.123.021-.207.033-.19.029-.141.026-.256.036-.074.012-.326.05-.009.003-.337.05-.063.007-.276.041-.129.017-.215.033-.197.025-.146.021-.268.038-.078.012-.696.091-.063.008-.289.036-.137.017-.219.025-.207.025-.148.021-.282.033-.077.008-.356.042h-.004l-.363.041-.066.003-.298.034-.141.016-.226.021-.215.025-.153.017-.289.028-.078.008-.367.033h-.004l-.376.037-.066.005-.31.029-.144.012-.232.021-.218.022-.156.011-.301.025-.078.008-.382.029h-.003l-.386.029-.069.005-.314.025-.153.012-.236.015-.227.017-.16.008-.311.021-.083.007-.384.026h-.008l-.392.021-.074.004-.319.021-.156.008-.24.012-.236.016-.167.004-.314.016-.081.004-.401.021-.405.021h-.074l-.326.016-.161.004-.243.012-.245.008-.165.005-.322.011-.083.004-.409.012-.412.012h-.078l-.331.011h-.165l-.248.009-.248.003-.165.005-.331.008h-.086l-.413.007h-.003l-.418.005h-.083l-.334.004-.166.003h-.251l-.253.005h-2.027l-.252-.005h-.252l-.166-.003-.338-.004h-.078l-.422-.005-.412-.007h-.086l-.331-.008-.165-.005-.248-.003-.253-.009h-.16l-.33-.011h-.078l-.412-.012-.409-.012-.083-.004-.322-.011-.169-.005-.241-.008-.243-.012-.161-.004-.326-.016h-.074l-.406-.021h-.003l-.397-.021-.081-.004-.319-.016-.161-.004-.236-.016-.24-.012-.156-.008-.319-.021-.074-.004-.396-.021h-.005l-.388-.026-.082-.007-.306-.021-.159-.008-.227-.017-.241-.015-.147-.012-.316-.025-.069-.005-.385-.029h-.004l-.38-.029-.079-.008-.3-.025-.158-.011-.218-.022-.236-.021-.144-.012-.306-.029-.066-.005-.376-.037h-.004l-.367-.033-.078-.008-.289-.028-.157-.017-.214-.025-.223-.021-.141-.016-.297-.034-.067-.003-.362-.041h-.008l-.352-.042-.078-.008-.281-.033-.149-.021-.207-.025-.218-.025-.138-.017-.289-.036-.061-.008-.352-.045-.009-.004-.337-.041-.078-.012-.268-.038-.144-.021-.199-.025-.215-.033-.127-.016-.283-.041-.058-.008-.337-.049-.009-.004-.326-.05-.074-.011-.26-.037-.137-.025-.194-.029-.203-.033-.123-.022-.268-.045-.38-.062-.008-.005-.314-.052-.07-.013-.248-.045-.137-.021-.496-.091-.996-.194-.059-.011-.255-.05-.05-.012-.362-.074-.101-.022-.251-.053h-.004l-.248-.053-.107-.025-.146-.029-.202-.045-.046-.012-.243-.053-.244-.058-.156-.038-.087-.021-.248-.058a48.496 48.496 0 01-1.168-.296l-.226-.059-.227-.063-.161-.045-.062-.015-.224-.063-.062-.016-.16-.049c-2.862-.818-5.212-1.768-6.927-2.813.012.074.033.149.063.227l.024.059.009.021.025.058.008.016.033.067.008.011.042.066.003.009.045.069.005.009.052.071v.003l.062.078.066.074v.004l.071.074.004.005.071.07.008.008.07.07.011.012.071.062.016.017.074.062.021.016.07.058.03.021.07.059.033.025.07.049.038.029.07.049.041.03.071.045.048.033.066.045.054.036.066.038.062.041.063.037.07.041.062.033.078.045.053.033.086.045.054.03.092.049.048.025.104.053.045.025.111.053.038.022.119.059.037.021.128.058.034.015.137.063.024.011.149.067.021.008.161.071.007.003.175.075.003.003.182.075.182.074h.007l.182.074.017.004.177.071.021.008.174.066.033.007.166.063.041.016.166.058.045.017.161.058.058.021.152.053.066.021.149.049.078.029.14.045.087.03.137.045.099.029.129.042.107.033.124.04.115.034.119.037.124.036.111.033.14.042.1.029.152.045.092.03.166.044.082.025.177.046.075.025.185.049.071.016.197.058.063.012.21.059.05.012.223.058.04.011.241.063.028.005.253.066.021.003.264.067h.012l.277.07c6.886 1.661 16.447 2.684 27.046 2.684 10.603 0 20.164-1.023 27.05-2.684l.281-.07h.008l.264-.067.021-.003.252-.066.029-.005.24-.063.041-.011.223-.058.049-.012.211-.059.063-.012.197-.058.07-.016.186-.049.075-.025.177-.046.083-.025.165-.044.091-.03.154-.045.099-.029.14-.042.111-.033.129-.036.116-.037.114-.034.124-.04.108-.033.132-.042.096-.029.137-.045.086-.03.141-.045.078-.029.148-.049.066-.021.153-.053.058-.021.16-.058.045-.017.167-.058.04-.016.17-.063.03-.011.173-.062.025-.013.174-.066.016-.004.182-.074.007-.003.182-.071.182-.075.003-.003.174-.075.013-.003.156-.071.021-.008.149-.067.025-.011.137-.063.033-.015.129-.063.036-.015.12-.059.148-.075.045-.025.104-.053.049-.024.092-.05.053-.028.086-.047.058-.033.074-.044.063-.034.07-.041.062-.036.063-.042.236-.152.07-.045.041-.03.07-.049.038-.029.069-.049.035-.025c.132-.104.255-.207.362-.305l.071-.071.007-.008.071-.069.004-.005.07-.073v-.005l.067-.075v-.003l.062-.075v-.003l.053-.074.004-.004.045-.071.045-.078.008-.008.033-.066c.062-.129.107-.257.129-.381-1.668 1.016-3.944 1.946-6.708 2.75l-.01-.002h-.001zm-53.909 1.568c-.507-.094-1.004-.189-1.49-.284l1.49.284zm-13.249-8.395c.14.07.273.161.392.273 1.335 1.248 3.954 2.4 7.534 3.387l.145.041.103.025.17.045.078.021c.43.116.872.227 1.33.335.427.104.868.206 1.314.301l.008.003.273.059.066.012.215.045.129.03.155.033.191.036.099.022.88.17.086.021.21.037.153.029.152.03.306.053.276.048.03.005.31.052.033.008.282.045.095.017.222.036.157.026.156.025.223.037.1.016.286.041.036.008.323.049.029.004.3.041.092.017.236.033.161.024.174.022.226.033.103.015.657.086h.016l.029.005.314.041.092.012.248.033.165.016.179.026.235.028.112.012.305.034.045.007.347.038.026.003.326.037.355.038.166.015.19.021.24.026.119.012.311.03.048.003.364.037h.021l.344.033.091.008.274.025.169.017.198.015.24.021.129.009.317.029.053.004.371.029h.022l.355.03.092.003.281.025.17.008.211.017.244.015.136.008.319.022.062.003.381.025.015.005.367.021.096.004.293.016.167.012.218.007.248.017.141.003.326.017.066.003.393.017.012.003.38.016.086.004.305.012.17.008.227.007.248.009.149.003.326.013h.069l.402.016h.007l.397.008.086.003.314.009.17.003.237.005.248.007h.156l.33.008h.075l.407.009h.005l.404.003.083.005h.326l.165.003h.244l.252.004h1.976l.253-.004h.243l.167-.003h.326l.081-.005.405-.003h.004l.408-.009h.075l.33-.008h.156l.248-.007.237-.005.17-.003.314-.009.086-.003.396-.008h.008l.397-.016h.07l.33-.013.149-.003.248-.009.227-.007.169-.008.301-.012.092-.004.38-.016.012-.003.394-.017.066-.003.326-.017.14-.003.248-.017.215-.007.169-.012.294-.016.095-.004.367-.021.017-.005.38-.025.062-.003.318-.022.137-.008.245-.015.21-.017.166-.008.285-.025.091-.003.356-.03h.021l.372-.029.053-.004.318-.029.128-.009.24-.021.199-.015.169-.017.274-.025.091-.008.343-.033h.021l.363-.037.05-.003.31-.03.12-.012.236-.026.711-.074.329-.037.022-.003.352-.038.045-.007.301-.034.114-.012.232-.028.182-.026.165-.016.248-.033.091-.012.314-.041.03-.005.669-.086.108-.015.227-.033.173-.022.157-.024.24-.033.091-.017.298-.041.029-.004.326-.049.037-.008.286-.041.099-.016.218-.037.319-.05.222-.036.096-.017.281-.045.03-.007.314-.053.029-.005.277-.048.611-.112.211-.037.086-.021.88-.17.099-.021.19-.037.156-.033.129-.03.215-.045.066-.011.273-.059.008-.004.66-.149.161-.036.17-.038.322-.078c.459-.108.9-.219 1.33-.334l.083-.022.165-.045.103-.024.145-.042c3.582-.986 6.2-2.143 7.535-3.387.119-.111.251-.203.392-.273.185-.268.284-.537.284-.805v-4.751l-.102.067-.042.025-.066.042-.107.061-.042.026-.066.041-.107.062-.045.029-.066.033-.112.067-.049.026-.062.036-.116.063-.053.029-.062.033-.116.062-.057.029-.063.033-.119.063-.063.029-.058.029-.124.062-.066.033-.058.03-.129.058-.066.033-.059.029-.128.058-.075.035-.058.024-.128.063-.075.033-.058.025-.132.058-.083.034-.053.025-.137.058-.081.033-.054.026-.137.053-.09.037-.05.021-.141.058-.095.033-.049.021-.14.059-.101.037-.045.016-.147.053-.101.04-.044.017-.149.053-.108.037-.04.016-.152.049-.113.041-.036.017-.157.048-.115.041-.038.012-.155.053-.12.037-.038.013-.155.052-.129.041-.03.009-.16.049-.133.04-.029.009-.166.053-.137.041-.024.008-.166.049-.145.041-.021.008-.17.045-.148.045-.021.004-.17.049-.153.042-.016.003-.174.05-.156.04-.012.005-.178.048-.161.041-.011.004-.177.046-.171.04-.008.005-.177.045-.174.041-.004.004-.181.041-.182.045c-7.163 1.727-17.014 2.797-27.852 2.797-10.833 0-20.683-1.07-27.846-2.797l-.181-.045-.149-.033-.033-.008-.178-.045-.115-.03-.063-.015-.178-.045-.086-.021-.091-.026-.174-.045-.053-.015-.123-.034-.17-.046-.026-.007-.147-.041-.167-.045h-.003l-.171-.05-.135-.036-.033-.012-.17-.046-.493-.148-.165-.053-.042-.012-.119-.037-.161-.049-.011-.005-.145-.044-.314-.103-.115-.042-.042-.011-.152-.054-.153-.053-.152-.053-.062-.021-.087-.03-.152-.053-.033-.012-.116-.044-.293-.108-.129-.048-.015-.005-.14-.058-.104-.038-.042-.015-.14-.059-.136-.058-.142-.053-.136-.058-.137-.059-.024-.012a22.457 22.457 0 01-1.739-.825l-.092-.05-.025-.012-.227-.123-.111-.066-.219-.124-.034-.015-.074-.05-.318-.189v4.746c0 .268.1.533.285.805l-.014-.009zm76.901 2.016a1.735 1.735 0 01-.322 1.874l.322-1.874zm-22.178-13.752l-.033.012c-.189.075-.385.149-.586.223l-.075.029-.483.173-.045.017-.033.012-.277.092-.136.045-.178.061-.07.026-.253.078h-.003l-.257.083-.062.021-.197.062-.133.037-.665.198h-.007c-.896.259-1.842.499-2.834.726-3.544.815-7.699 1.472-12.283 1.92l-.011.005-.435.04-.434.042h-.015l-1.297.115-.062.004-.385.029-.075.009-.371.028-.092.005-.462.033-.343.025-.124.008-.326.025-.141.008-.47.03-.301.021-.17.007-.29.016-.185.012-.278.017-.203.007-.255.016-.218.007-.248.013-.237.012-.231.007-.252.013-.215.007-.268.012-.203.009-.285.008-.487.021-.174.004-.319.011-.156.005-.334.007-.145.005-.351.007-.129.005-.367.008h-.111l-.389.007-.095.005-.406.003-.078.004-.421.005h-.063l-.442.003h-.044l-.459.005h-.029l-.475.003h-1.316l-.203-.003h-.4l-.108-.005h-.294l-.197-.003h-.012l-.19-.005h-.197l-.111-.004h-.087l-.198-.003-.197-.005h-.017l-.18-.003-.199-.004h-.119l-.078-.005-.197-.003-.199-.005h-.021l-.177-.004-.194-.003-.119-.005-.078-.003-.194-.004-.197-.005h-.026l-.169-.007-.198-.004-.12-.004-.074-.005-.194-.007-.194-.004-.028-.004-.166-.004-.194-.008-.128-.005-.067-.003-.194-.008-.189-.007h-.033l-.16-.009-.194-.008-.129-.004-.062-.004-.194-.007-.189-.009-.033-.003-.157-.008-.194-.009-.129-.008-.061-.004-.19-.008-.189-.007-.038-.005-.152-.008-.323-.021h-.053l-.566-.037-.185-.012-.137-.008-.053-.003-.186-.012-.185-.012-.042-.005-.145-.008-.185-.012-1.294-.099a120.717 120.717 0 01-5.922-.611l-.024-.004-.839-.108-.078-.012-.119-.015-.116-.017-.099-.011h-.017l-.114-.016-.116-.016-.116-.016-.048-.008-.066-.008-.116-.015.058.036.021.012.079.05.02.015.063.038.066.041.016.007.087.053.029.017.058.033.083.045.003.008.096.048.041.025.049.026.095.053.1.049.053.029.045.022.104.053.008.003.091.045.066.033.041.017.108.053.015.008.092.04.078.038.033.012.112.05.029.015.086.037.096.041.021.008.119.05.042.015.078.033.107.045.017.008.119.05.053.02.197.079h.004l.129.049.066.026.066.024.133.049.007.005.124.044.082.03.053.021.141.049.016.008.119.041.1.033.045.016.14.049.033.012.112.037.115.037.033.012.149.045.045.017.104.033.132.04.174.059.062.015.096.033.144.046h.008l.161.049.074.025.082.026.16.045.009.003.157.046.094.025.071.021.165.049.022.004.148.042.112.033.059.015.168.045.034.012.141.038.128.033.046.012.177.044.05.012.122.033.149.042.033.008.178.045.07.016.111.029.171.041.015.004.182.046.086.021.099.025.19.045c6.886 1.66 16.447 2.689 27.046 2.689 10.603 0 20.164-1.029 27.05-2.689 6.2-1.491 10.036-3.254 10.036-4.933 0-.767-1.119-1.667-3.105-2.623-2.339-1.127-5.685-2.122-9.766-2.923-1.085 1.56-3.257 2.969-6.289 4.158l-.008.013zm-21.99.625c.574-.041 1.14-.086 1.697-.137h.025a85.794 85.794 0 001.682-.16l.033-.004c4.279-.433 8.15-1.049 11.453-1.805a96.72 96.72 0 001.438-.347l.095-.026.181-.045.1-.025.446-.115.099-.03.17-.045.096-.025.165-.044.099-.03.161-.045.099-.026.157-.045c4.395-1.267 7.108-2.697 7.397-4.113.004-.045.009-.087.009-.129v-4.751l-.104.067-.037.026-.067.036-.108.066-.04.026-.066.037-.108.066-.046.026-.066.037-.111.062-.049.03-.067.036-.111.063-.053.028-.062.035-.12.061-.053.03-.066.033-.119.059-.058.033-.063.028-.123.063-.062.029-.063.029-.123.062-.067.033-.061.026-.129.062-.071.033-.058.026-.132.058-.074.037-.06.022-.132.061-.078.033-.053.021-.137.059-.081.037-.054.021-.14.059-.086.037-.053.021-.141.053-.092.037-.049.021-.145.053-.096.038-.048.021-.144.054-.104.036-.045.017-.145.052-.108.041-.045.012-.148.053-.111.041-.042.012-.152.053-.115.042-.037.011-.156.05-.12.04-.037.012-.156.05-.129.041-.033.012-.157.048-.132.042-.034.008-.16.049-.137.041-.025.008-.165.049-.146.045-.024.004-.166.049-.149.042-.021.007-.17.049-.152.042-.017.003-.173.045-.156.045-.017.005-.174.045-.165.045h-.008l-.177.049-.17.04-.009.005-.177.045-.178.041-.181.045-.182.045c-7.163 1.727-17.017 2.792-27.851 2.792-10.833 0-20.689-1.066-27.847-2.792l-.181-.045-.182-.045h-.005l-.177-.041-.178-.045-.007-.005-.17-.04-.174-.049h-.012l-.166-.045-.174-.045-.012-.005-.16-.045-.169-.045-.021-.003-.153-.042-.17-.049-.021-.007-.144-.042-.17-.049-.026-.004-.141-.045-.165-.049-.03-.008-.136-.041-.16-.049-.03-.008-.132-.042-.161-.048-.033-.012-.123-.041-.16-.05-.157-.052-.153-.05-.458-.16-.153-.053-.041-.012-.107-.041-.149-.054-.149-.053-.144-.058-.045-.015-.1-.038-.144-.053-.05-.021-.091-.037-.14-.053-.05-.021-.091-.037-.137-.059-.053-.021-.082-.037-.137-.059-.057-.021-.08-.037-.263-.115-.132-.058-.059-.026-.07-.033-.129-.062-.058-.026-.067-.033-.129-.062-.248-.12-.061-.028-.059-.033-.24-.119-.116-.063-.066-.033-.048-.03-.116-.066-.111-.062-.112-.063-.33-.189-.104-.066-.21-.129v4.751c0 1.676 3.836 3.435 10.032 4.931 1.289.31 2.668.6 4.13.859l.016.004.136.026.149.025.082.016.222.037.149.025.005.004.152.025.156.025.063.012.091.016.157.025.132.021.026.005.156.025.157.025.045.008.111.017.273.04.045.008.16.025.161.026h.021l.141.021.16.025.093.015.069.009.166.026.16.021.167.025.165.024.066.009.099.011.167.025.136.017.029.003.17.022.166.026.045.003.124.015.169.022.112.016.058.004.17.021.17.025h.015l.153.021h.004l.343.041.17.017.347.041.174.02.059.009.822.086.025.005.152.015.178.017.1.007.078.008.178.021.174.016h.003l.182.016.182.015.359.038.14.012.042.004.182.016.182.012.033.003.152.012.182.017.107.008.078.007.182.017.181.011h.005l.185.016.177.012.079.008.1.008.181.012.171.012h.007l.178.016.182.012.081.004.822.058.087.004.095.009.186.007.364.026.185.011.086.004.096.005.185.012.372.021.186.007.091.005.095.003.186.012.372.016.189.008.092.004.096.004.189.008.185.008.19.007.189.009.096.003.096.005.185.008.194.004.19.008.189.007.095.005h.096l.19.007.194.005.189.008.194.004.095.003h.096l.194.008.193.004.194.005.193.003h.095l.101.005.192.003.194.004h.194l.193.005.1.003h.1l.194.004h.197l.194.004h.296l.096.004h.197l.198.004h1.98l.445-.004.046-.004.429-.004h.063l.408-.004h.083l.392-.008h.096l.375-.007.111-.005.356-.008h.129l.337-.012h.144l.323-.012.157-.003.305-.009.173-.003.29-.012.185-.008.278-.008.458-.016.215-.012.24-.008.231-.012.222-.008.455-.025.256-.012.194-.008.445-.026.29-.015.16-.012.298-.017.144-.007.314-.021.129-.008.879-.063.352-.025.082-.008.011.007zm25.422-16.105l.021-.037c-.516.119-1.049.236-1.594.347l-.108.022a68.73 68.73 0 01-1.859.355l-.045.012-.693.119-.026.004-.326.059-.063.007-.111.021-.284.046-.071.012-.177.028-.146.022-.036.008-.178.025-.181.029h-.005l-.177.03-.182.029-.041.004-.141.021-.182.03-.081.012-.104.011-.182.03-.123.015-.063.008-.185.029-.161.021-.024.005-.186.025-.19.024-.015.005-.17.021-.191.029-.057.004-.133.022-.19.025-.099.011-.092.009-.189.024-.141.022-.053.004-.19.025-.185.021h-.009l-.193.025-.194.026-.033.004-.748.082-.116.012c-3.08.338-6.368.583-9.8.718l-.248.009-.153.008h-.1l-.252.012-.137.003-.114.005-.253.007-.123.005-.129.003-.251.004-.112.005-.141.003-.255.008h-.101l-.152.004-.255.008h-.086l-.17.004-.257.005-.074.003h-.177l-.256.004-.067.004h-.193l-.257.004h-.048l-.207.005h-.26l-.037.003h-.505l-.23.004h-1.684l-.108-.004h-.503l-.289-.003-.215-.005h-.232l-.267-.004-.178-.004-.322-.004-.123-.003-.376-.009h-.066l-.43-.012h-.012l-.441-.008-.042-.003-.4-.012h-.091l-.347-.012-.146-.005-.288-.012-.198-.003-.24-.012-.248-.008-.186-.008-.297-.012-.132-.004-.352-.016-.078-.004-.404-.021h-.026l-.429-.021-.026-.004-.4-.021-.075-.005-.347-.021-.129-.008-.293-.016-.177-.012-.244-.011-.227-.017-.19-.012-.277-.015-.145-.012-.321-.021-.092-.008-.371-.03h-.042l-.408-.033h-.012l-.4-.033-.059-.004-.348-.029-.107-.008-.297-.025-.157-.017-.248-.02-.202-.021-.198-.017-.252-.024-.149-.012-.296-.03-.1-.012-.343-.033-.05-.008-.392-.037h-.004l-.389-.046-.045-.003-.344-.037-.091-.008-.297-.038-.136-.012-.248-.033-.182-.021-.197-.025-.227-.025-.152-.021-.268-.033-.108-.016-.314-.042-.063-.003-.355-.05h-.016l-.372-.053-.029-.004-.338-.045-.07-.011-.294-.042-.114-.015-.248-.038-.157-.025-.202-.029-.199-.033-.156-.021-.244-.042-.111-.015-.286-.045-.07-.013-.322-.052-.025-.005-.347-.058-.017-.004-.326-.058-.059-.009-.284-.048-.096-.021-.243-.042-.137-.024-.198-.038-.178-.033-.156-.033-.215-.042-.116-.021-.251-.048-.075-.017-.289-.058-.037-.008-.297-.063-.025-.003-.268-.058-.091-.017-.203-.044-.149-.033-.141-.03-.211-.045-.078-.021h-.003l-.942-.219a49.501 49.501 0 01-3.799-1.074l-.24-.078-.05-.016-.062-.026c-3.102-1.045-5.464-2.271-6.89-3.63-2.61.738-4.712 1.574-6.175 2.474-1.181.723-1.834 1.383-1.834 1.929 0 1.676 3.838 3.436 10.037 4.931 6.886 1.66 16.447 2.69 27.046 2.69 10.598 0 20.161-1.03 27.05-2.69l.252-.062.037-.008.219-.053.066-.015.182-.046.099-.025.149-.037.129-.038.115-.029.16-.04.079-.022.189-.049.05-.012.218-.063.015-.003.232-.063.015-.003.215-.063.045-.012.182-.053.074-.021.149-.041.103-.034.116-.033.132-.041.086-.025.157-.049.058-.016.186-.058.026-.008.21-.066.207-.067.029-.007.174-.059.053-.016.145-.049.078-.029.116-.038.106-.036.086-.033.129-.042.063-.024.152-.054.033-.011.174-.068h.013l.177-.069.015-.004.161-.062.038-.017.136-.053.059-.025.111-.041.082-.033.087-.037.099-.041.062-.03.12-.048.041-.017.136-.062.021-.008.152-.066v-.004l.149-.067.025-.011.119-.059.042-.016.104-.049.057-.029.083-.041.075-.041.057-.03.096-.048.037-.022.107-.057.021-.013.12-.067.008-.003.119-.071.009-.004.107-.066.025-.012.092-.053.037-.024.07-.047.054-.033.052-.036.067-.045.037-.026.074-.053.025-.016.082-.062.012-.008.091-.07.086-.071.054-.048.029-.022.021-.021.058-.05.033-.028.042-.041.041-.042.029-.029.049-.049.021-.021.05-.059.012-.012.057-.066v-.003l.059-.071.004-.007.045-.063.012-.016.033-.054.016-.024.03-.045.015-.033-.001-.019zm-64.112-8.157c.075.082.141.169.199.263.945 1.309 3.482 2.558 7.2 3.636l.107.033.136.037.124.037.123.033.141.037c.618.17 1.267.334 1.945.501l.286.066.04.012.236.053.096.021.19.045.14.03.145.033c.38.081.767.169 1.168.248l.946.189.173.033.149.026.21.04.113.021.655.116.334.058.005.004.67.111.086.012.252.042.128.021.215.033.174.025.174.029.214.033.133.022.26.038.092.011.701.1h.007l.361.048.033.005.326.045.078.008.285.036.123.017.245.028.165.022.203.026.211.028.16.016.256.029.116.013.305.036.07.009h.026l.73.081h.021l.36.038.066.008.318.033.116.007.272.03.158.012.23.021.207.021.181.017.257.021.136.012.305.028.091.008.352.03h.045l.397.033h.004l.397.033h.053l.347.03.103.003.301.025.152.008.253.017.203.012.207.015.251.017.157.007.3.016.113.008.35.022h.063l.404.02.013.004.417.022h.033l.385.021.086.004.335.011.137.009.284.011.186.009.236.008.244.007.181.005.294.012.132.003.348.012h.082l.396.012h.033l.43.012h.021l.412.008.071.005.364.003.123.004.314.004.174.004.26.003h.231l.21.005.281.004h.157l.335.004h2.014l.256-.004h.256l.255-.004.182-.005h.071l.252-.003h.256l.251-.004.149-.004.103-.004.385-.003.116-.005.251-.004.116-.004.136-.004.749-.021h.078l.165-.009.248-.003.066-.004.182-.008.248-.008.493-.016h.033l.21-.011.728-.03h.003l1.401-.071.04-.003.716-.042.165-.008.777-.048.137-.012c1.516-.104 2.991-.227 4.419-.372h.003l.215-.021.212-.025h.007l.227-.025.19-.021.036-.005.675-.073.132-.017.314-.036.104-.009.115-.016.223-.025.074-.012.364-.045.045-.004.174-.02.215-.03.021-.005.197-.025.207-.029h.008l.215-.028.177-.026.038-.004.21-.029.149-.022.066-.011.212-.029.119-.016.091-.012.207-.033.095-.012.116-.021.207-.03.066-.012.14-.021.207-.033.041-.004.161-.029.6-.096.012-.003.197-.033.165-.026.038-.007a72.07 72.07 0 005.853-1.239l.114-.03c5.541-1.429 8.914-3.077 8.914-4.651v-4.751l-.104.068-.037.025-.066.041-.107.061-.042.026-.066.042-.107.061-.05.03-.061.033-.112.066-.049.026-.066.036-.112.063-.053.03-.066.033-.115.061-.053.03-.066.033-.121.062-.058.03-.062.028-.123.063-.063.033-.062.029-.123.058-.066.033-.063.03-.129.058-.069.034-.059.025-.133.062-.074.033-.058.025-.133.058-.078.034-.053.025-.136.058-.083.033-.053.026-.141.053-.086.037-.053.021-.141.058-.091.033-.049.021-.144.053-.096.042-.05.016-.144.053-.104.037-.044.015-.145.059-.107.037-.045.017-.149.048-.111.041-.041.012-.152.053-.116.042-.038.011-.156.054-.123.036-.034.012-.156.053-.129.042-.033.008-.16.049-.133.041-.029.008-.161.053-.136.041-.029.009-.165.048-.141.041-.026.009-.165.045-.149.044-.021.004-.171.05-.152.041-.015.003-.174.05-.157.04-.015.005-.174.045-.166.045-.008.003-.178.046-.17.04-.007.005-.178.045-.178.041v.004l-.181.041-.182.045c-7.167 1.727-17.018 2.797-27.851 2.797-10.834 0-20.688-1.07-27.851-2.797l-.181-.045-.178-.041-.004-.004-.178-.041-.178-.045-.008-.005-.17-.04-.177-.046-.008-.003-.166-.045-.173-.045-.012-.005-.161-.04-.17-.05-.021-.003-.152-.041-.171-.05-.021-.004-.147-.044-.167-.045-.025-.009-.14-.041-.167-.048-.028-.009-.137-.041-.161-.053-.028-.008-.134-.041-.16-.049-.033-.008-.129-.042-.156-.053-.157-.048-.152-.054-.463-.16-.148-.049-.041-.016-.108-.037-.149-.059-.149-.053-.144-.053-.045-.015-.099-.042-.145-.053-.048-.021-.093-.033-.14-.058-.053-.021-.086-.038-.136-.052-.053-.026-.087-.033-.133-.058-.058-.026-.078-.033-.265-.119-.132-.058-.058-.025-.071-.034-.128-.062-.058-.026-.071-.033-.123-.058-.248-.124-.062-.028-.058-.03-.24-.122-.116-.063-.066-.033-.05-.03-.114-.062-.116-.062-.107-.067-.331-.189-.108-.063-.206-.132v4.751c0 .119.021.236.059.355h-.003zm64.075-14.829c-6.889-1.66-16.451-2.683-27.05-2.683s-20.161 1.024-27.05 2.683c-6.196 1.496-10.032 3.259-10.032 4.933 0 1.676 3.836 3.44 10.032 4.932 6.889 1.66 16.451 2.689 27.05 2.689s20.161-1.029 27.05-2.689c6.195-1.491 10.033-3.254 10.033-4.932 0-1.673-3.838-3.436-10.033-4.933zm-155.88-.255a1.739 1.739 0 110-3.477h28.433a1.738 1.738 0 110 3.477H24.88zm0 8.686a1.739 1.739 0 010-3.477h62.903a1.739 1.739 0 010 3.477H24.879zm0-65.119h57.445c.959 0 1.738.777 1.738 1.739v17.174c0 .958-.78 1.739-1.738 1.739H24.879a1.74 1.74 0 01-1.739-1.739V46.635c0-.963.777-1.739 1.739-1.739zM133.21 72.784h28.487c.963 0 1.739.781 1.739 1.739v8.257a1.74 1.74 0 01-1.739 1.739H133.21a1.741 1.741 0 01-1.738-1.739v-8.257c0-.96.78-1.739 1.738-1.739zm26.751 3.479h-25.012v4.778h25.012v-4.778zm-62.862-3.479h28.491a1.74 1.74 0 011.738 1.739v8.257c0 .958-.781 1.739-1.738 1.739H97.098a1.742 1.742 0 01-1.739-1.739v-8.257c0-.96.781-1.739 1.739-1.739zm26.752 3.479H98.838v4.778h25.012v-4.778zm-62.864-3.479h28.492a1.74 1.74 0 011.738 1.739v8.257c0 .958-.782 1.739-1.738 1.739H60.986c-.96 0-1.739-.782-1.739-1.739v-8.257c0-.96.781-1.739 1.739-1.739zm26.753 3.479H62.726v4.778h25.013v-4.778zm-62.864-3.479h28.49c.964 0 1.739.781 1.739 1.739v8.257a1.74 1.74 0 01-1.739 1.739h-28.49c-.96 0-1.735-.782-1.735-1.739v-8.257c0-.96.777-1.739 1.735-1.739zm26.752 3.479H26.615v4.778h25.012v-4.778zm28.957-27.889H26.617v13.698h53.967V48.374zM9.741 33.254a.165.165 0 00-.119.053v.004a.183.183 0 00-.058.123v90.678a.19.19 0 00.049.119l.008.007c.033.029.074.05.12.05h86.632v3.477H9.74c-.99 0-1.908-.413-2.569-1.079l-.008-.008a3.64 3.64 0 01-1.077-2.568V33.432c0-.999.412-1.92 1.077-2.582v.005a3.655 3.655 0 012.577-1.083h161.302c.999 0 1.916.418 2.576 1.078v.009a3.654 3.654 0 011.078 2.572V89.77c-1.164-.16-2.324-.305-3.477-.43V33.43a.18.18 0 00-.053-.123h-.003c-.037-.033-.078-.059-.12-.059H9.741v.005z" fill="url(#paintMobile_linear)"/><defs><linearGradient id="paintMobile_linear" x1="0" y1="47" x2="147.309" y2="239.936" gradientUnits="userSpaceOnUse"><stop stop-color="#8BC4C1"/><stop offset=".7" stop-color="#0093DD"/><stop offset="1" stop-color="#23164D"/></linearGradient></defs></svg>