<svg width="200" height="200" fill="none" xmlns="http://www.w3.org/2000/svg"><g clip-path="url(#clip0)"><path d="M137.64 41.875c16.643 1.15 31.623 8.375 42.722 19.478C192.494 73.485 200 90.249 200 108.758c0 18.51-7.506 35.273-19.638 47.405-12.134 12.134-28.897 19.64-47.406 19.64-14.926 0-28.714-4.883-39.853-13.13a61.17 61.17 0 002.73-2.298c10.448 7.526 23.268 11.959 37.123 11.959 17.553 0 33.449-7.114 44.954-18.621 11.506-11.507 18.625-27.4 18.625-44.954 0-17.553-7.119-33.448-18.625-44.953-11.508-11.506-27.401-18.621-44.954-18.621-17.171 0-32.751 6.81-44.193 17.875a60.676 60.676 0 00-3.037-1.883c10.93-10.847 25.58-17.961 41.865-19.251v-6.373h-5.64a1.735 1.735 0 01-1.734-1.735v-7.885c0-.956.774-1.735 1.734-1.735h21.329c.954 0 1.734.778 1.734 1.735v7.885c0 .955-.778 1.735-1.734 1.735h-5.64v6.323zm28.694 102.069a1.735 1.735 0 010-2.451 1.741 1.741 0 012.455 0l6.139 6.143c9.228-9.96 14.959-23.206 15.23-37.786h-8.264a1.735 1.735 0 010-3.47h8.227c-.589-14.398-6.502-27.42-15.816-37.162l-5.517 5.52a1.74 1.74 0 01-2.455 0 1.74 1.74 0 010-2.455l5.499-5.496c-9.813-9.092-22.819-14.79-37.144-15.214v7.6a1.735 1.735 0 11-3.47 0v-7.6c-14.382.429-27.432 6.166-37.253 15.318a65.682 65.682 0 00-2.778-2.148c10.877-10.327 25.584-16.668 41.766-16.668 16.756 0 31.928 6.793 42.907 17.776 10.983 10.979 17.776 26.153 17.776 42.907 0 16.755-6.793 31.924-17.776 42.907-10.979 10.978-26.153 17.776-42.907 17.776-13.018 0-25.077-4.103-34.963-11.087a58.199 58.199 0 002.439-2.521 56.956 56.956 0 0030.79 10.114v-8.899a1.735 1.735 0 013.471 0v8.894c14.65-.437 27.923-6.381 37.807-15.835l-6.163-6.163zM131.06 35.55v5.468h3.11V35.55h-3.11zm10.485-7.884h-17.86v4.416h17.857v-4.416h.003zm-96.137 94.691h-7.85a1.735 1.735 0 010-3.47h7.85V93.329c0-.956.777-1.735 1.734-1.735h14.753c4.231 0 8.08 1.729 10.864 4.514l.095.106c2.604 2.65 4.256 6.225 4.409 10.164h6.756a1.736 1.736 0 010 3.47h-7.013a15.42 15.42 0 01-4.247 7.992l-.106.095c-2.777 2.728-6.579 4.42-10.757 4.42H48.88v4.343h17.364c.956 0 1.735.778 1.735 1.735 0 .955-.778 1.735-1.735 1.735H48.88v6.687a1.736 1.736 0 01-3.47 0v-6.687h-7.85a1.735 1.735 0 010-3.47h7.85v-4.343l-.002.002zm16.486-27.293H48.876v23.824h13.018c3.23 0 6.175-1.306 8.326-3.411l.086-.091a11.912 11.912 0 003.239-5.936 1.736 1.736 0 01.255-2.848 11.886 11.886 0 00-3.403-7.956l-.091-.082a11.88 11.88 0 00-8.412-3.502v.002zm-6.93-25.687c12.439 0 23.702 5.047 31.854 13.2 8.152 8.151 13.199 19.415 13.199 31.852 0 12.442-5.047 23.705-13.199 31.857-8.152 8.152-19.416 13.196-31.853 13.196-12.442 0-23.705-5.044-31.857-13.196-8.154-8.152-13.196-19.416-13.196-31.857 0-12.438 5.042-23.7 13.196-31.853 8.152-8.152 19.42-13.199 31.857-13.199zm29.403 15.651c-7.526-7.522-17.92-12.182-29.402-12.182s-21.88 4.66-29.407 12.182c-7.522 7.526-12.178 17.92-12.178 29.403 0 11.481 4.656 21.879 12.178 29.406 7.526 7.522 17.925 12.183 29.407 12.183 11.481 0 21.879-4.661 29.402-12.183 7.526-7.526 12.182-17.925 12.182-29.406 0-11.482-4.656-21.876-12.182-29.403zM54.965 59.47c15.172 0 28.916 6.155 38.86 16.1 9.945 9.945 16.1 23.688 16.1 38.861 0 15.176-6.155 28.92-16.1 38.864-9.945 9.945-23.688 16.101-38.86 16.101-15.177 0-28.916-6.156-38.865-16.101C6.155 143.351 0 129.607 0 114.431 0 99.258 6.155 85.515 16.1 75.57c9.949-9.945 23.688-16.1 38.865-16.1zm36.41 18.55c-9.318-9.319-22.193-15.081-36.41-15.081-14.217 0-27.09 5.762-36.41 15.081-9.32 9.318-15.087 22.194-15.087 36.411 0 14.22 5.768 27.094 15.087 36.41 9.317 9.319 22.193 15.086 36.41 15.086 14.217 0 27.09-5.767 36.41-15.086 9.319-9.315 15.082-22.189 15.082-36.41 0-14.217-5.763-27.092-15.082-36.41zm41.58 23.232c.705 0 1.389.098 2.035.28l19.926-35.925a1.731 1.731 0 013.024 1.68l-19.932 35.925c.083.078.171.161.247.239h.005a7.476 7.476 0 012.199 5.306 7.48 7.48 0 01-1.28 4.185l15.572 16.858a1.732 1.732 0 01-2.549 2.344l-15.564-16.854a7.43 7.43 0 01-3.683.972 7.5 7.5 0 01-5.306-2.199l-.099-.111a7.483 7.483 0 01-2.098-5.195c0-2.072.841-3.951 2.197-5.306l.11-.103a7.484 7.484 0 015.196-2.097v.001zm2.856 4.643a4.022 4.022 0 00-2.855-1.174c-1.08 0-2.057.415-2.777 1.098l-.074.083a4.013 4.013 0 00-1.186 2.855c0 1.079.419 2.056 1.099 2.776l.087.08a4.024 4.024 0 002.85 1.182c1.12 0 2.129-.45 2.854-1.179l.009-.003a4.035 4.035 0 001.174-2.855 4.025 4.025 0 00-1.183-2.854l.004-.005-.004-.003.001-.001h.001z" fill="url(#paintMobile_linear)"/></g><defs><linearGradient id="paintMobile_linear" x1="0" y1="47" x2="147.309" y2="239.936" gradientUnits="userSpaceOnUse"><stop stop-color="#8BC4C1"/><stop offset=".7" stop-color="#0093DD"/><stop offset="1" stop-color="#23164D"/></linearGradient><clipPath id="clip0"><path fill="#fff" d="M0 24h200v152H0z"/></clipPath></defs></svg>