<svg width="200" height="200" fill="none" xmlns="http://www.w3.org/2000/svg"><path d="M142 8.5H58C30.662 8.5 8.5 30.662 8.5 58v84c0 27.338 22.162 49.5 49.5 49.5h84c27.338 0 49.5-22.162 49.5-49.5V58c0-27.338-22.162-49.5-49.5-49.5z" stroke="url(#prev_linear)" stroke-width="17"/><path d="M122.5 41.497l-54 53.96a6.356 6.356 0 000 8.993 6.368 6.368 0 009 0l54-53.96a6.357 6.357 0 000-8.993 6.367 6.367 0 00-9 0z" fill="url(#prev_linear)"/><path d="M131.5 149.51l-54-53.96a6.367 6.367 0 00-9 0 6.355 6.355 0 000 8.993l54 53.96a6.366 6.366 0 009 0 6.356 6.356 0 000-8.993z" fill="url(#prev_linear)"/><defs><linearGradient id="prev_linear" x1="0" y1="47" x2="147.309" y2="239.936" gradientUnits="userSpaceOnUse"><stop stop-color="#8BC4C1"/><stop offset=".7" stop-color="#0093DD"/><stop offset="1" stop-color="#23164D"/></linearGradient></defs></svg>