<svg width="200" height="200" fill="none" xmlns="http://www.w3.org/2000/svg"><path d="M149.355 30.733c4.522 3.37 8.571 8.265 11.946 14.322a69.627 69.627 0 013.892 8.23c5.037-1.568 9.637-3.517 13.672-5.768l-.411-.416a61.699 61.699 0 00-29.1-16.368h.001zM50.3 83.32c7.272 0 13.856 2.95 18.623 7.718a26.246 26.246 0 017.716 18.622 26.244 26.244 0 01-7.716 18.619c-4.767 4.767-11.351 7.717-18.623 7.717-7.273 0-13.857-2.95-18.624-7.717a26.245 26.245 0 01-7.716-18.619c0-7.272 2.95-13.86 7.716-18.622 4.767-4.767 11.35-7.718 18.624-7.718zm16.19 10.146A22.835 22.835 0 0050.3 86.76a22.833 22.833 0 00-16.19 6.706 22.826 22.826 0 00-6.71 16.196 22.828 22.828 0 006.71 16.191 22.837 22.837 0 0016.19 6.705 22.839 22.839 0 0016.19-6.705 22.833 22.833 0 006.71-16.191 22.838 22.838 0 00-6.71-16.196zM50.3 78.53c8.591 0 16.376 3.486 22.007 9.118 5.632 5.636 9.118 13.417 9.118 22.012 0 8.592-3.486 16.372-9.118 22.008a31.031 31.031 0 01-22.007 9.114 31.024 31.024 0 01-22.007-9.114c-5.632-5.636-9.119-13.417-9.119-22.008 0-8.596 3.487-16.376 9.119-22.012 5.631-5.632 13.416-9.118 22.007-9.118zm19.575 11.55c-5.01-5.01-11.931-8.112-19.575-8.112s-14.565 3.1-19.577 8.113c-5.01 5.011-8.113 11.932-8.113 19.581 0 7.644 3.1 14.565 8.113 19.576a27.61 27.61 0 0019.577 8.107c7.644 0 14.57-3.101 19.575-8.107 5.012-5.011 8.115-11.932 8.115-19.576 0-7.649-3.102-14.57-8.115-19.581zM57.488 64.645c1.637.258 3.259.61 4.855 1.05 1.617.439 3.185.962 4.7 1.562l.97-2.271a1.717 1.717 0 012.479-.791l.005-.005 4.913 3.028 4.991 2.695a1.717 1.717 0 01.495 2.627l-1.52 2.022a44.747 44.747 0 013.634 3.362 44.839 44.839 0 013.23 3.701l2.221-1.67a1.718 1.718 0 012.399.341c.053.075.097.142.137.221l.005-.005 2.7 4.992 3.023 4.918a1.721 1.721 0 01-.894 2.52l-2.682 1.144a45.67 45.67 0 011.422 4.688l.019.079c.372 1.523.67 3.081.879 4.673l3.215-.386a1.72 1.72 0 011.909 1.876l-.156 5.597.156 5.723a1.708 1.708 0 01-1.666 1.76c-.083.005-.166 0-.244-.009v.005l-3.503-.421a46.282 46.282 0 01-2.66 9.203l3.41 1.455a1.713 1.713 0 01.79 2.477l.005.005-3.028 4.913v.005l-2.695 4.988a1.718 1.718 0 01-2.627.493l-3.097-2.324a46.336 46.336 0 01-6.792 6.594l2.474 3.298a1.713 1.713 0 01-.562 2.54h.005l-4.992 2.7-4.918 3.024a1.716 1.716 0 01-2.52-.894l-1.632-3.814a45.59 45.59 0 01-4.492 1.431c-1.509.39-3.038.714-4.585.948l.512 4.288a1.719 1.719 0 01-1.875 1.91l-5.596-.156-5.725.161a1.72 1.72 0 01-1.764-1.666c0-.088.005-.172.015-.249h-.005l.512-4.284a44.988 44.988 0 01-4.585-.952 44.238 44.238 0 01-4.497-1.426l-1.671 3.907a1.71 1.71 0 01-2.477.791v.005l-4.914-3.029h-.004l-4.988-2.695a1.717 1.717 0 01-.494-2.622l2.407-3.215a45.652 45.652 0 01-6.789-6.593l-3.184 2.388a1.712 1.712 0 01-2.535-.555h-.004l-2.701-4.992-3.024-4.914a1.724 1.724 0 01.562-2.368 2.4 2.4 0 01.332-.156l3.317-1.416a46.494 46.494 0 01-1.569-4.497 46.454 46.454 0 01-1.094-4.705l-3.507.426a1.72 1.72 0 01-1.91-1.881l.156-5.596-.161-5.725a1.713 1.713 0 011.915-1.749v-.004l3.214.389c.214-1.617.518-3.197.9-4.746.39-1.612.869-3.175 1.421-4.695L4.67 92.904a1.716 1.716 0 01-.904-2.248c.03-.084.074-.156.117-.23h-.005l3.028-4.918 2.697-4.992a1.716 1.716 0 012.622-.495l2.145 1.607a46.364 46.364 0 013.218-3.703 45.917 45.917 0 013.64-3.36l-1.584-2.11a1.712 1.712 0 01.563-2.535l-.005-.005 4.992-2.697 4.919-3.028a1.72 1.72 0 012.519.894l.928 2.173a44.136 44.136 0 014.698-1.561 44.584 44.584 0 014.86-1.051l-.292-2.412a1.727 1.727 0 011.88-1.911l5.596.156 5.725-.156a1.707 1.707 0 011.75 1.91h.004l-.288 2.413-.005-.001zm3.958 4.352a41.78 41.78 0 00-6.066-1.176 1.716 1.716 0 01-1.504-1.91l.253-2.111-3.78.108h-.099l-3.78-.108.254 2.11a1.72 1.72 0 01-1.505 1.91c-2.09.25-4.118.645-6.065 1.177a41.703 41.703 0 00-5.814 2.072h-.004l-.02.009a1.72 1.72 0 01-2.246-.91l-.86-2.007-3.224 1.983v-.005l-.087.053-3.326 1.798 1.386 1.85a1.713 1.713 0 01-.327 2.384 41.784 41.784 0 00-4.586 4.093 42.439 42.439 0 00-3.95 4.704l-.02.03a1.713 1.713 0 01-2.399.342l-2.003-1.505-1.752 3.243a1.343 1.343 0 01-.092.172l-1.984 3.223 2.39 1.02.053.02a1.72 1.72 0 01.948 2.236 42.017 42.017 0 00-2.886 11.682l-.01.152a1.716 1.716 0 01-1.906 1.504l-2.95-.356.108 3.786v.092l-.107 3.782 3.175-.381a1.717 1.717 0 011.899 1.47 41.918 41.918 0 001.25 5.881 42.339 42.339 0 002.096 5.65l.014.035a1.717 1.717 0 01-.908 2.252l-3.166 1.352 1.984 3.225h-.005l.048.087 1.801 3.326 2.862-2.15.04-.029a1.718 1.718 0 012.403.307 42.089 42.089 0 003.977 4.44 41.952 41.952 0 004.522 3.818l.053.039c.758.567.914 1.647.347 2.399l-2.305 3.072 3.242 1.753c.058.026.117.059.171.093l3.225 1.983 1.503-3.522.034-.087a1.72 1.72 0 012.248-.924 41.458 41.458 0 005.613 1.911 42.22 42.22 0 005.802 1.084l.035.005a1.712 1.712 0 011.504 1.906l-.48 3.99 3.783-.106h.096l3.775.106-.478-3.994v-.005a1.715 1.715 0 011.508-1.899 41.655 41.655 0 0011.45-2.995 1.715 1.715 0 012.236.912l1.543 3.619 3.228-1.983v.005l.084-.048 3.326-1.802-2.3-3.073-.015-.019a1.71 1.71 0 01.376-2.388 42.975 42.975 0 004.562-3.844 43.355 43.355 0 003.976-4.44 1.715 1.715 0 012.384-.323l2.921 2.188 1.753-3.242c.026-.059.06-.117.093-.173l1.983-3.223-3.117-1.329-.083-.04a1.713 1.713 0 01-.86-2.265 41.92 41.92 0 002.096-5.65c.542-1.876.963-3.82 1.246-5.814v-.039a1.715 1.715 0 011.91-1.503l3.17.38-.107-3.781v-.093l.107-3.781-2.944.351-.005-.005-.035.005a1.715 1.715 0 01-1.871-1.542 41.849 41.849 0 00-1.002-5.939l-.019-.063a41.249 41.249 0 00-1.875-5.787v-.005c-.351-.86.059-1.85.919-2.223l2.47-1.05-1.983-3.228h.005l-.053-.088-1.798-3.321-2.003 1.498-.03.02a1.71 1.71 0 01-2.389-.39 43.017 43.017 0 00-3.95-4.71 42.96 42.96 0 00-4.59-4.092 1.72 1.72 0 01-.324-2.385l1.388-1.846-3.242-1.748a2.192 2.192 0 01-.173-.097l-3.223-1.983-.825 1.934-.04.093a1.72 1.72 0 01-2.261.879 41.273 41.273 0 00-5.817-2.07v.002zm94.763 46.848l-.173 42.235 9.139-6.032a1.717 1.717 0 012.544.807l7.731 17.603 3.986-1.748 3.977-1.748-7.761-17.671a1.713 1.713 0 011.158-2.35h-.005l10.619-2.652-31.215-28.44v-.004zm-3.61 45.419l.2-49.175c-.03-.449.117-.908.439-1.268a1.719 1.719 0 012.428-.113l36.421 33.183a1.718 1.718 0 01-.723 2.95l-11.752 2.935 7.635 17.378a1.713 1.713 0 01-.888 2.256l-5.548 2.443-5.552 2.437a1.717 1.717 0 01-2.257-.888l-7.63-17.373-10.11 6.677-.005-.004c-.269.181-.6.283-.952.283-.944 0-1.71-.771-1.704-1.72l-.002-.001zm29.309-115.55v-.005l.137.147c10.794 11.351 17.54 26.584 17.932 43.38l.009.391c.01.386.014.776.014 1.167 0 .61-.014 1.216-.03 1.823l-.01.366c-.473 14.403-5.627 27.629-13.977 38.205l-2.55-2.32.263-.338c1.973-2.296 2.784-3.871 4.674-6.979a61.373 61.373 0 007.077-19.028l.005-.03.005-.019v-.009l.112-.6.025-.133.029-.171.084-.479.019-.111v-.019l.048-.307.05-.308.039-.253.009-.049.044-.307.045-.288v-.025l.044-.307.039-.307.04-.307.039-.312.005-.054c.048-.395.093-.79.132-1.192l.029-.312a66.25 66.25 0 00.245-4.102h-24.641c-.123 8.23-1.108 16.088-2.798 23.283l-2.921-2.657c1.372-6.428 2.168-13.368 2.275-20.626h-31.962v24.621c3.463.049 6.863.254 10.179.6l-.015 3.454a112.447 112.447 0 00-10.164-.615v31.933c3.512-.327 6.892-1.667 10.052-3.854l-.025 6.315a65.517 65.517 0 01-11.747 1.06c-15.097 0-28.991-5.133-40.045-13.739a52.118 52.118 0 002.022-2.784 61.582 61.582 0 0023.43 11.352c-4.518-3.371-8.572-8.265-11.946-14.322-1.813-3.247-3.434-6.842-4.83-10.712a50.877 50.877 0 001.562-6.287c.151.514.302 1.021.453 1.525a96.874 96.874 0 012.072-.567c7.814-2.036 16.459-3.228 25.563-3.36V92.519h-30.311a51.809 51.809 0 00-1.378-3.437h31.687V61.119c-8.597-.127-16.787-1.196-24.25-3.028-.801-.195-1.592-.4-2.373-.615-3.175 9.015-5.103 19.615-5.334 31.008a52.572 52.572 0 00-3.17-5.91c.675-9.47 2.496-18.312 5.211-26.06-5.494-1.73-10.5-3.894-14.863-6.408A61.598 61.598 0 0078.95 64.26a54.262 54.262 0 00-3.034-1.637A65.574 65.574 0 0187.447 45.9l.172-.187.005.005c.332-.35.673-.7 1.016-1.045 11.803-11.805 28.112-19.107 46.125-19.107 18.007 0 34.316 7.302 46.121 19.107.341.346.682.693 1.02 1.045l.002-.006zm-91.245 1.801c4.034 2.253 8.635 4.2 13.671 5.769 1.171-2.93 2.471-5.685 3.893-8.23 3.374-6.057 7.428-10.951 11.945-14.32-11.199 2.71-21.212 8.478-29.1 16.366l-.41.415zm105.395 35.367a83.35 83.35 0 00-.205-1.465l-.004-.029-.005-.025-.103-.655-.014-.089a73.907 73.907 0 00-.274-1.523l-.005-.026c-2.105-10.966-7.106-20.894-14.184-28.973-4.371 2.515-9.373 4.679-14.867 6.403 3.326 9.504 5.319 20.64 5.494 32.573h24.641c-.004-.323-.019-.644-.03-.967l-.005-.053-.014-.343-.019-.336-.019-.337v-.026l-.019-.318-.025-.336-.019-.319-.004-.019-.025-.337-.031-.331-.009-.098-.019-.24-.034-.337-.005-.043-.03-.289-.035-.333-.034-.317-.005-.02-.039-.331-.04-.333-.01-.088-.004-.045v.005zm-59.573-53.799v28.592c8.328-.127 16.239-1.157 23.425-2.922a97.58 97.58 0 001.978-.508 67.157 67.157 0 00-3.579-7.526c-5.719-10.252-13.387-16.846-21.822-17.636h-.002zm0 32.032v27.96h31.962c-.171-11.618-2.111-22.432-5.343-31.605-.781.215-1.573.42-2.373.616-7.459 1.83-15.653 2.9-24.246 3.029zm-3.439 91.392v-31.934c-8.83.133-17.183 1.281-24.704 3.238-.62.165-1.235.333-1.845.503 1.357 3.829 2.945 7.365 4.722 10.554 5.72 10.252 13.393 16.845 21.828 17.636l-.001.003zm0-94.832V29.082c-8.434.79-16.108 7.38-21.828 17.636a66.372 66.372 0 00-3.575 7.526c.65.176 1.309.346 1.969.508 7.189 1.765 15.101 2.795 23.434 2.922z" fill="url(#paint0_linear)"/><defs><linearGradient id="paint0_linear" x1="-.002" y1="63.686" x2="147.306" y2="256.625" gradientUnits="userSpaceOnUse"><stop stop-color="#8BC4C1"/><stop offset=".7" stop-color="#0093DD"/><stop offset="1" stop-color="#23164D"/></linearGradient><linearGradient id="paintMobile_linear" x1="0" y1="47" x2="147.309" y2="239.936" gradientUnits="userSpaceOnUse"><stop stop-color="#8BC4C1"/><stop offset=".7" stop-color="#0093DD"/><stop offset="1" stop-color="#23164D"/></linearGradient></defs></svg>