<svg width="200" height="200" fill="none" xmlns="http://www.w3.org/2000/svg"><g clip-path="url(#clip0)"><path d="M118.883 68.02a4.48 4.48 0 014.482 4.481 4.484 4.484 0 11-8.969 0 4.483 4.483 0 014.487-4.482zm49.58 66.695c.437 0 .839-.178 1.128-.461l.005-.011c.284-.283.462-.685.462-1.122v-13.52a1.57 1.57 0 00-.473-1.128 1.6 1.6 0 00-1.123-.465 1.603 1.603 0 00-1.596 1.593v13.52c0 .437.177.839.462 1.122l.005.011c.289.283.691.461 1.128.461h.002zm4.98-14.201a20.924 20.924 0 019.773 5.514h.005v.006l.006.009a20.788 20.788 0 016.111 14.742c0 5.758-2.341 10.976-6.111 14.754l-.006.004.006.006c-3.783 3.771-9.003 6.111-14.764 6.111-5.752 0-10.97-2.341-14.752-6.118l-.006-.005-.004-.004a20.805 20.805 0 01-6.107-14.749c0-5.753 2.334-10.971 6.118-14.758h-.004a20.898 20.898 0 019.778-5.513v-.913c0-1.371.563-2.62 1.462-3.52a4.96 4.96 0 013.519-1.462c1.376 0 2.618.56 3.519 1.462a4.98 4.98 0 011.461 3.52v.913l-.004.001zm-9.961 3.503a17.523 17.523 0 00-7.381 4.406l-.005-.005-.005.005a17.432 17.432 0 00-5.113 12.361c0 4.833 1.955 9.206 5.113 12.362l.01.009a17.436 17.436 0 0012.361 5.118c4.833 0 9.198-1.96 12.361-5.127l.005.004a17.43 17.43 0 005.122-12.366c0-4.828-1.953-9.204-5.117-12.361l-.01-.01a17.44 17.44 0 00-7.382-4.396v9.102a4.945 4.945 0 01-1.462 3.513l-.004.01a5.002 5.002 0 01-3.513 1.456 4.996 4.996 0 01-3.513-1.456l-.004-.01a4.95 4.95 0 01-1.463-3.513v-9.102zM103.81 57.434a1.72 1.72 0 01-2.423 0 1.722 1.722 0 010-2.421 24.795 24.795 0 018.038-5.367v-.005a24.664 24.664 0 019.458-1.878c3.345 0 6.539.67 9.463 1.878l.081.042c3 1.253 5.696 3.076 7.946 5.33a1.711 1.711 0 11-2.422 2.421 21.379 21.379 0 00-6.829-4.599l-.091-.035a21.268 21.268 0 00-8.148-1.61 21.27 21.27 0 00-8.15 1.61h-.009a21.283 21.283 0 00-6.914 4.634zm14.793-27.125c8.742 0 16.657 3.543 22.384 9.275 5.726 5.726 9.274 13.642 9.274 22.383 0 8.737-3.548 16.653-9.274 22.379-5.727 5.727-13.642 9.27-22.384 9.27-8.737 0-16.652-3.543-22.383-9.27-5.727-5.726-9.27-13.642-9.27-22.379 0-8.741 3.543-16.657 9.27-22.383 5.731-5.732 13.646-9.275 22.383-9.275zm19.963 11.696c-5.107-5.111-12.163-8.274-19.961-8.274a28.111 28.111 0 00-19.957 8.274c-5.113 5.109-8.276 12.165-8.276 19.962 0 7.793 3.163 14.85 8.276 19.962a28.145 28.145 0 0019.957 8.264c7.798 0 14.855-3.163 19.961-8.264 5.108-5.113 8.271-12.17 8.271-19.962 0-7.797-3.163-14.855-8.271-19.962zm-27.887 22.298a1.709 1.709 0 01-2.412-2.42 15.109 15.109 0 014.879-3.255 14.973 14.973 0 0111.473 0 15.023 15.023 0 014.874 3.255 1.707 1.707 0 01-2.406 2.42 11.574 11.574 0 00-8.204-3.396 11.58 11.58 0 00-4.442.878 11.612 11.612 0 00-3.762 2.518zM7.608 52.413l47.976-29.532c.582-.36 1.3-.325 1.837.03l29.176 17.643c-.655.984-1.274 2-1.842 3.046l-28.42-16.906-52.907 32.28v7.406l51.566-31.247a1.713 1.713 0 011.888-.113l25.2 14.717a39.282 39.282 0 00-.97 3.403L56.027 38.487 10.17 66.277v107.67h42.229v-4.219c0-.939.772-1.711 1.711-1.711h4.742v-4.756c0-.944.767-1.711 1.71-1.711H62.8v-41.685c0-.944.772-1.712 1.71-1.712h27.755c.944 0 1.71.768 1.71 1.712v54.082h6.342V95.854a37.167 37.167 0 003.421 1.64v78.162c0 .949-.767 1.715-1.711 1.715H8.457c-.943 0-1.71-.766-1.71-1.715V68.347l-4.153 2.518a1.708 1.708 0 01-2.589-1.462H0V58.011c0-.665.376-1.233.925-1.517l6.545-3.995.019-.015.116-.071h.004zM90.56 168.02v-3.046H62.282v3.046H90.56zm-24.328-6.469H90.56v-39.975H66.232v39.975zm24.328 12.398v-2.507H55.824v2.507H90.56zM64.516 80.743H80.06c.944 0 1.71.767 1.71 1.71v24.364c0 .944-.766 1.712-1.71 1.712H64.516c-.94 0-1.71-.768-1.71-1.712V82.454c0-.944.77-1.71 1.71-1.71zm13.833 3.427H66.232v20.935h12.117V84.17zM28.88 114.382h15.54c.944 0 1.71.767 1.71 1.71v24.364c0 .944-.766 1.712-1.71 1.712H28.88a1.71 1.71 0 01-1.712-1.712v-24.364c0-.943.762-1.71 1.712-1.71zm13.824 3.421H30.592v20.943h12.113v-20.943zM28.88 80.743h15.54c.944 0 1.71.767 1.71 1.71v24.364c0 .944-.766 1.712-1.71 1.712H28.88a1.71 1.71 0 01-1.712-1.712V82.454c0-.944.762-1.71 1.712-1.71zm13.824 3.427H30.592v20.935h12.113V84.17zm114.161-26.563h3.408c3.686 0 7.04 1.513 9.472 3.94a13.358 13.358 0 013.936 9.468v28.552l6.349-6.35a1.72 1.72 0 012.423 0 1.726 1.726 0 010 2.427l-8.772 8.767v.224h17.676a8.6 8.6 0 016.103 2.537 8.602 8.602 0 012.537 6.101v53.267c0 2.381-.97 4.543-2.537 6.106a8.616 8.616 0 01-6.103 2.533h-46.199a8.616 8.616 0 01-6.101-2.533l-.096-.108a8.609 8.609 0 01-2.441-6.001v-17.282h-7.764c-3.69 0-7.045-1.508-9.472-3.935-2.432-2.432-3.94-5.782-3.94-9.472v-30.543l-6.061 6.067a1.714 1.714 0 01-2.422-2.423l8.483-8.484c.813-1.213 2.555-1.172 3.426 0l9.266 9.509c.669.664.669 1.512 0 2.178a1.71 1.71 0 01-2.422 0l-6.844-6.849v30.543a9.959 9.959 0 002.934 7.053 9.964 9.964 0 007.052 2.934h7.764v-32.564c0-2.377.974-4.539 2.537-6.102a8.594 8.594 0 016.101-2.538h25.101v-.222l-8.768-8.769a1.717 1.717 0 010-2.426 1.72 1.72 0 012.422 0l6.346 6.35V71.01c0-2.74-1.128-5.24-2.934-7.052-1.813-1.801-4.305-2.93-7.052-2.93H157.1a42.04 42.04 0 00-.234-3.426v.005zm34.494 50.448h-46.198a5.198 5.198 0 00-3.682 1.534 5.202 5.202 0 00-1.539 3.686v53.266a5.21 5.21 0 001.463 3.615l.076.071a5.203 5.203 0 003.682 1.534h46.198a5.212 5.212 0 003.687-1.534 5.227 5.227 0 001.533-3.686v-53.266a5.219 5.219 0 00-1.533-3.686 5.22 5.22 0 00-3.687-1.534z" fill="url(#paintMobile_linear)"/></g><defs><linearGradient id="paintMobile_linear" x1="0" y1="47" x2="147.309" y2="239.936" gradientUnits="userSpaceOnUse"><stop stop-color="#8BC4C1"/><stop offset=".7" stop-color="#0093DD"/><stop offset="1" stop-color="#23164D"/></linearGradient><clipPath id="clip0"><path fill="#fff" d="M0 22h200v156H0z"/></clipPath></defs></svg>