<svg width="200" height="200" fill="none" xmlns="http://www.w3.org/2000/svg"><path d="M6.903 76.396c-1.998 1.425-4.744.912-6.123-1.152-1.378-2.064-.882-4.9 1.117-6.325L97.355.808a4.275 4.275 0 014.953-.034l.134.093 95.614 66.047c2.008 1.39 2.547 4.228 1.202 6.303-1.346 2.075-4.094 2.633-6.101 1.242L99.903 10.044l-93 66.352zm41.23 88.111h27.952v-30.158H48.132v30.158zm32.366 9.118H39.306v-48.391h45.606v48.391h-4.413zm42.341-9.118h27.954v-30.158H122.84v30.158zm32.367 9.118h-41.193v-48.391h45.606v48.391h-4.413zM28.888 190.879h141.948c2.04 0 3.927-.878 5.273-2.268a7.844 7.844 0 002.206-5.449V84.715L99.857 29.36 21.42 84.715v98.447c0 2.121.849 4.058 2.185 5.437l.021.023c1.335 1.379 3.21 2.257 5.262 2.257zm141.952 9.118H28.892c-4.455 0-8.526-1.892-11.481-4.946l-.023-.022a17.042 17.042 0 01-4.787-11.862V79.929l1.93-1.367 82.85-58.48 2.473-1.744 2.494 1.744 82.872 58.48 1.93 1.367v103.238c0 4.625-1.844 8.854-4.788 11.9-2.934 3.031-7.037 4.934-11.519 4.934l-.003-.004zM73.04 93.023a4.3 4.3 0 01-6.198-.32c-1.623-1.848-1.479-4.73.31-6.403 4.29-4.024 9.3-7.248 14.76-9.438a46.168 46.168 0 0117.056-3.283c5.55 0 10.964 1.026 15.974 2.882a47.167 47.167 0 0114.122 8.296l.276.249 1.566 1.412.155.15.011-.011 1.666 1.662c1.753 1.732 1.8 4.626.123 6.44-1.677 1.812-4.477 1.86-6.235.126l-1.667-1.661.012-.01-1.48-1.325-.01-.012c-3.398-2.892-7.294-5.22-11.497-6.771-4.017-1.492-8.415-2.313-13.02-2.313-4.91 0-9.607.944-13.88 2.644a38.595 38.595 0 00-12.047 7.683l.003.003zm11.198 13.406a4.318 4.318 0 01-6.223-.298c-1.634-1.848-1.501-4.741.288-6.429a31.231 31.231 0 019.798-6.258 30.511 30.511 0 0111.306-2.188c3.719 0 7.293.685 10.578 1.894l.418.17a31.36 31.36 0 018.971 5.356l.076.066.021.023.144.126.939.844.374.376.86.878c1.721 1.755 1.743 4.648.044 6.43a4.317 4.317 0 01-6.223.043l-.796-.81-.043-.033-1.037-.934c-1.965-1.65-4.193-2.997-6.587-3.909l-.1-.033a22.322 22.322 0 00-7.646-1.369c-2.891 0-5.648.559-8.132 1.551a22.546 22.546 0 00-7.037 4.504h.007zm29.509-.729l-.01-.011.01.011zM61.436 79.03c-1.833 1.64-4.622 1.424-6.213-.468-1.587-1.894-1.38-4.775.454-6.42A64.395 64.395 0 0175.6 59.95a63.276 63.276 0 0122.792-4.25 63.237 63.237 0 0122.77 4.25l.011-.023c7.346 2.815 14.11 6.998 19.924 12.22 1.832 1.64 2.041 4.525.454 6.418-1.588 1.892-4.381 2.109-6.213.47-5.008-4.494-10.857-8.115-17.231-10.555l.01-.023h-.01c-6.091-2.345-12.754-3.636-19.715-3.636-6.972 0-13.635 1.286-19.726 3.636-6.33 2.429-12.191 6.051-17.23 10.577v-.004z" fill="url(#paint0_linear)"/><defs><linearGradient id="paint0_linear" x1="0" y1="48" x2="147.309" y2="240.936" gradientUnits="userSpaceOnUse"><stop stop-color="#8BC4C1"/><stop offset=".7" stop-color="#0093DD"/><stop offset="1" stop-color="#23164D"/></linearGradient></defs></svg>