<svg width="200" height="200" fill="none" xmlns="http://www.w3.org/2000/svg"><path d="M52.971 66.22V36.356c0-3.954 1.607-7.546 4.204-10.143l.004-.005A14.328 14.328 0 0167.326 22h96.802c3.953 0 7.545 1.612 10.142 4.208l.005.005a14.32 14.32 0 014.208 10.143v33.578a30.355 30.355 0 00-3.474-2.041V36.356c0-3.006-1.214-5.73-3.183-7.7a10.86 10.86 0 00-7.698-3.182H67.326c-3.01 0-5.733 1.215-7.703 3.183a10.875 10.875 0 00-3.183 7.7v32.061a30.661 30.661 0 00-3.469-2.198zm95.602 55.662l11.089 17.007 11.095-17.007h-22.184zm11.824-52.227a22.755 22.755 0 0116.151 6.692l.097.103c4.082 4.132 6.601 9.8 6.601 16.049a22.77 22.77 0 01-6.692 16.146l-.006.005h.006a22.773 22.773 0 01-16.157 6.693 22.775 22.775 0 01-16.157-6.693 22.779 22.779 0 01-6.693-16.151 22.785 22.785 0 016.693-16.152l.108-.097a22.754 22.754 0 0116.049-6.595zm13.698 9.146a19.295 19.295 0 00-13.698-5.677 19.335 19.335 0 00-13.621 5.591l-.082.088a19.307 19.307 0 00-5.672 13.698 19.316 19.316 0 005.672 13.698 19.316 19.316 0 0013.703 5.678 19.32 19.32 0 0013.703-5.678v.005a19.32 19.32 0 005.673-13.703 19.31 19.31 0 00-5.586-13.616l-.092-.082V78.8zm.79 43.08l-13.487 20.683v31.459h19.451v-27.751a1.738 1.738 0 013.476 0v27.751h12.203v-38.531a13.54 13.54 0 00-3.996-9.61v-.006l-.005.006a13.547 13.547 0 00-9.61-4.001h-8.032zm-16.956 52.142v-31.459l-13.488-20.683h-6.559c-3.746 0-7.147 1.53-9.612 4.001l-.088.081a13.534 13.534 0 00-3.911 9.529v38.531h10.227v-26.965c0-.959.776-1.735 1.735-1.735.96 0 1.736.776 1.736 1.735v26.965h19.962-.002zm40.333 3.475H122.53a1.741 1.741 0 01-1.735-1.741v-40.266c0-4.643 1.883-8.872 4.922-11.963l.098-.102c3.091-3.095 7.367-5.019 12.064-5.019h45.035c4.699 0 8.97 1.922 12.065 5.019h-.004c3.102 3.103 5.025 7.372 5.025 12.065v40.266c0 .96-.781 1.741-1.741 1.741h.003zM40.014 171.75h19.441v-29.013a1.734 1.734 0 113.47 0v29.013h11.622v-37.266c0-3.673-1.505-7.021-3.928-9.442l-.086-.092a13.335 13.335 0 00-9.357-3.837h-3.593c-.407 4.458-2.393 8.462-5.38 11.459a18.625 18.625 0 01-13.194 5.463 18.614 18.614 0 01-13.187-5.463 18.609 18.609 0 01-5.386-11.459h-3.592c-3.677 0-7.02 1.504-9.442 3.927h.005c-2.429 2.423-3.935 5.769-3.935 9.443v37.264h11.214v-29.011a1.738 1.738 0 013.476 0v29.011h21.855l-.003.003zm36.265 3.473H1.736c-.96 0-1.736-.78-1.736-1.735v-39.005c0-4.633 1.898-8.847 4.949-11.898v.005l.005-.005c3.05-3.044 7.26-4.942 11.885-4.942H61.17c4.577 0 8.744 1.852 11.79 4.846l.106.096c3.05 3.05 4.943 7.265 4.943 11.898v39.005c0 .955-.776 1.735-1.735 1.735h.005zm-22.186-54.11h-30.17a15.15 15.15 0 004.351 9.003 15.139 15.139 0 0010.734 4.448c4.194 0 7.99-1.704 10.739-4.448a15.15 15.15 0 004.346-9.003zM39.008 69.648c6.219 0 11.846 2.526 15.921 6.596l.093.102a22.447 22.447 0 016.499 15.82c0 6.213-2.52 11.846-6.592 15.916a22.44 22.44 0 01-15.92 6.596c-6.209 0-11.835-2.52-15.913-6.596h-.004a22.434 22.434 0 01-6.597-15.917c0-6.208 2.522-11.834 6.597-15.911v-.005l.004-.005.005-.004c4.082-4.072 9.704-6.592 15.907-6.592zm13.468 9.05a18.997 18.997 0 00-13.468-5.574 18.972 18.972 0 00-13.463 5.57l-.01.004a19.006 19.006 0 00-5.57 13.469c0 5.26 2.132 10.019 5.58 13.463l-.005.005a18.988 18.988 0 0013.468 5.576c5.26 0 10.02-2.133 13.468-5.581a18.978 18.978 0 005.576-13.463c0-5.219-2.097-9.943-5.488-13.381l-.088-.088zm76.078-36.908a14.709 14.709 0 00-6.06-1.28 14.47 14.47 0 00-8.259 2.638c-3.297 2.3-5.341 5.728-5.994 9.407a14.539 14.539 0 002.407 10.897c2.3 3.29 5.728 5.34 9.407 5.99a14.546 14.546 0 0016.198-9.265l.03-.088c.7-1.927.99-3.99.847-6.046l-9.962 6.974a1.734 1.734 0 01-2.409-.428l-6.59-9.423a1.721 1.721 0 01.429-2.402l9.957-6.974h-.001zm-22.895 19.53L84.864 75.868a4.605 4.605 0 00-1.882 2.974 4.61 4.61 0 00.748 3.445 4.572 4.572 0 002.97 1.875 4.613 4.613 0 003.45-.744l20.793-14.554a17.864 17.864 0 01-3.131-3.433 18.073 18.073 0 01-2.153-4.111v-.001zm8.331 9.63l-21.86 15.3a8.044 8.044 0 01-6.024 1.33 8.063 8.063 0 01-5.21-3.316 8.049 8.049 0 01-1.33-6.02 8.044 8.044 0 013.32-5.208l21.861-15.298a18.015 18.015 0 01.081-5.78 17.996 17.996 0 017.428-11.648 17.959 17.959 0 0110.223-3.255 18.131 18.131 0 0110.3 3.142v.005c.168.112.315.26.438.44a1.723 1.723 0 01-.424 2.401l-10.803 7.56 4.611 6.586 10.677-7.468a1.732 1.732 0 012.796.899c.908 3.552.698 7.28-.541 10.667l-.031.092a17.917 17.917 0 01-6.572 8.488 17.969 17.969 0 01-13.473 2.99 18.053 18.053 0 01-5.469-1.908l.002.001zm20.191 36.834h-26.982L85.767 125.75a1.73 1.73 0 01-2.438-.219 1.723 1.723 0 01-.369-1.469l2.582-16.278H67.325c-1.076 0-2.121-.122-3.128-.341a28.833 28.833 0 001.695-3.224c.47.061.948.092 1.433.092h20.243v.004c.092 0 .184.011.271.028a1.721 1.721 0 011.438 1.972l-2.189 13.806 18.282-15.331a1.742 1.742 0 011.2-.479h26.222a30.387 30.387 0 001.387 3.473l.002-.001zm-65.432-80.67h94.806c2.689 0 5.132 1.131 6.902 2.954a10.106 10.106 0 012.847 7.04v29.99a30.936 30.936 0 00-3.469-1.229V37.106a6.638 6.638 0 00-1.863-4.627 6.139 6.139 0 00-4.417-1.892H68.749c-1.718 0-3.284.724-4.417 1.892a6.632 6.632 0 00-1.861 4.627v37.252a29.65 29.65 0 00-3.47-3.82V37.105c0-2.734 1.092-5.229 2.847-7.04 1.77-1.82 4.213-2.953 6.901-2.953zm63.459 75.16H68.749a9.455 9.455 0 01-1.99-.209c.389-1.085.715-2.204.975-3.347.332.055.67.087 1.015.087h62.795a29.88 29.88 0 00.663 3.469h.001z" fill="url(#paintMobile_linear)"/><defs><linearGradient id="paintMobile_linear" x1="0" y1="47" x2="147.309" y2="239.936" gradientUnits="userSpaceOnUse"><stop stop-color="#8BC4C1"/><stop offset=".7" stop-color="#0093DD"/><stop offset="1" stop-color="#23164D"/></linearGradient></defs></svg>