<svg width="200" height="200" fill="none" xmlns="http://www.w3.org/2000/svg"><g clip-path="url(#clip0)"><path d="M191.562 17H8.437C3.79 17 0 20.79 0 25.438V145.71c0 4.648 3.79 8.437 8.438 8.437h83.28v11.641h-22.42c-9.18 0-16.602 7.422-16.602 16.601h94.649c0-9.179-7.422-16.601-16.602-16.601H108.32v-11.641h83.282c4.648 0 8.437-3.789 8.437-8.437V25.437C200 20.79 196.211 17 191.562 17zm-8.164 120.507H16.602V33.602h166.796v103.905z" fill="url(#paint0_linear)"/><path d="M54.986 121.288h18.71V67.264H91.94v-15.39h-55v15.39h18.047v54.024z" fill="url(#paint1_linear)"/><path d="M140.626 121.288l23.087-69.414h-19.962l-15.156 50-15.275-50H93.36l23.124 69.414h24.142z" fill="url(#paint2_linear)"/></g><defs><linearGradient id="paint0_linear" x1="0" y1="63.695" x2="147.309" y2="256.631" gradientUnits="userSpaceOnUse"><stop stop-color="#8BC4C1"/><stop offset=".7" stop-color="#0093DD"/><stop offset="1" stop-color="#23164D"/></linearGradient><linearGradient id="paint1_linear" x1="-.015" y1="63.686" x2="147.293" y2="256.624" gradientUnits="userSpaceOnUse"><stop stop-color="#8BC4C1"/><stop offset=".7" stop-color="#0093DD"/><stop offset="1" stop-color="#23164D"/></linearGradient><linearGradient id="paint2_linear" x1="-.002" y1="63.686" x2="147.306" y2="256.625" gradientUnits="userSpaceOnUse"><stop stop-color="#8BC4C1"/><stop offset=".7" stop-color="#0093DD"/><stop offset="1" stop-color="#23164D"/></linearGradient><clipPath id="clip0"><path fill="#fff" d="M0 0h200v200H0z"/></clipPath></defs></svg>