<svg width="200" height="200" fill="none" xmlns="http://www.w3.org/2000/svg"><path d="M46.03 20c-12.705 0-24.217 5.157-32.545 13.485C5.157 41.814 0 53.32 0 66.03c0 12.713 5.157 24.22 13.485 32.547 8.328 8.334 19.84 13.486 32.545 13.486 12.711 0 24.218-5.152 32.547-13.486 8.333-8.328 13.485-19.834 13.485-32.546 0-12.71-5.157-24.217-13.485-32.546C70.247 25.157 58.741 20 46.03 20zM26.48 56.55c-.9 0-1.628-.727-1.628-1.627v-.294c0-.901.727-1.628 1.627-1.628h16.558a1.775 1.775 0 010 3.547H36.53V77.29a1.77 1.77 0 01-1.772 1.768c-.98 0-1.77-.791-1.77-1.768V56.548H26.48v.003zm25.19-2.397a1.77 1.77 0 00-3.314 1.247l8.486 22.516a1.77 1.77 0 003.346-.104l7.816-22.453a1.769 1.769 0 00-1.088-2.25 1.772 1.772 0 00-2.251 1.088l-6.23 17.909-6.764-17.95v-.003zm111.487 48.056a2.68 2.68 0 100 5.361 2.68 2.68 0 000-5.361zm-.005 25.761a7.492 7.492 0 00-5.298 2.199h-.005a7.486 7.486 0 00-2.199 5.303 7.49 7.49 0 002.199 5.308 7.487 7.487 0 005.303 2.2 7.49 7.49 0 005.308-2.2v-.009a7.476 7.476 0 002.2-5.299 7.493 7.493 0 00-2.2-5.298l-.01-.005a7.47 7.47 0 00-5.298-2.199zm6.481-35.251h-12.778a6.663 6.663 0 00-4.718 1.963h-.004a6.67 6.67 0 00-1.963 4.722v73.472c0 1.838.753 3.508 1.963 4.717v.011a6.673 6.673 0 004.722 1.963h12.778a6.673 6.673 0 004.722-1.963v-.011a6.657 6.657 0 001.963-4.717V99.404a6.658 6.658 0 00-1.963-4.718v-.004a6.65 6.65 0 00-4.722-1.963zm-12.778 3.543h12.778a3.149 3.149 0 013.14 3.14v73.473a3.13 3.13 0 01-.922 2.224v-.005c-.57.57-1.354.92-2.218.92h-12.778a3.134 3.134 0 01-2.215-.92l-.005.005a3.158 3.158 0 01-.92-2.224V99.403c0-.864.356-1.65.928-2.22h-.005a3.122 3.122 0 012.218-.921h-.001zm3.497 36.41a3.967 3.967 0 012.8-1.158c1.094 0 2.083.446 2.801 1.153l.005.01a3.94 3.94 0 011.152 2.795 3.96 3.96 0 01-1.152 2.805l-.005-.004a3.947 3.947 0 01-2.801 1.157 3.931 3.931 0 01-2.795-1.157 3.951 3.951 0 010-5.596l-.005-.005zm-25.212 35.305h-6.522v-19.04h13.919v-3.549H28.134a6.26 6.26 0 01-4.424-1.843h-.004a6.233 6.233 0 01-1.838-4.423v-28.2a51.015 51.015 0 01-3.55-2.105v30.305c0 2.692 1.11 5.146 2.89 6.926l-.005.005a9.785 9.785 0 006.93 2.884h61.564v19.04h-6.518c-1.11 0-2.073.576-2.739 1.491-.538.754-.88 1.764-.88 2.837v2.932c0 1.078.342 2.082.88 2.837.666.915 1.63 1.492 2.74 1.492h51.96c1.106 0 2.073-.572 2.738-1.492.54-.755.88-1.765.88-2.837v-2.932c0-1.073-.34-2.083-.88-2.837-.665-.921-1.632-1.491-2.738-1.491zm48.271-19.041h6.775a9.797 9.797 0 006.931-2.884l-.006-.005c1.781-1.781 2.889-4.23 2.889-6.926v-91.1a9.774 9.774 0 00-2.883-6.93h-.006a9.783 9.783 0 00-6.925-2.884H88.743a51.633 51.633 0 012.12 3.544h99.323c1.721 0 3.292.708 4.427 1.843h-.005a6.257 6.257 0 011.843 4.428v91.099a6.223 6.223 0 01-1.838 4.423h-.005a6.255 6.255 0 01-4.422 1.843h-6.775v3.549zm4.591-98.73v86.732h-4.591v3.551h8.134V46.66H93.192a51.02 51.02 0 011.304 3.55h93.506v-.004zm-45.466 86.732H30.314v-22.404a49.47 49.47 0 01-3.55-1.298v27.253h115.771v-3.551h.001zm-49.291 11.998h31.828v18.731H93.245v-18.731zm-10.068 22.59h.116l.015.004c0-.004-.224-.004-.13-.004zm.116 0h51.727l-.011.004c.126.174.206.446.206.775v2.932c0 .328-.08.601-.206.773-.005.006.226.006.131.006h-.116l-.015-.006.015.006H83.293l.015-.006c-.125-.172-.204-.445-.204-.773v-2.932c0-.329.079-.601.204-.775l-.015-.004zm51.727 0h.12c.095 0-.136 0-.131.004l.011-.004zm-51.843 4.492c-.093 0 .131 0 .131-.005l-.015.005h-.116zM46.03 28.241c-10.433 0-19.882 4.235-26.718 11.071C12.475 46.15 8.24 55.597 8.24 66.032c0 10.432 4.235 19.881 11.072 26.719 6.836 6.84 16.285 11.07 26.718 11.07 10.434 0 19.883-4.23 26.72-11.07 6.841-6.838 11.07-16.287 11.07-26.72 0-10.434-4.229-19.882-11.07-26.719-6.837-6.836-16.286-11.071-26.72-11.071zM21.82 41.82c6.193-6.199 14.756-10.03 24.21-10.03a34.12 34.12 0 0124.212 10.03c6.198 6.198 10.034 14.758 10.034 24.211 0 9.454-3.836 18.02-10.034 24.218-6.194 6.194-14.757 10.03-24.212 10.03-9.454 0-18.019-3.836-24.21-10.03-6.2-6.199-10.035-14.763-10.035-24.219 0-9.453 3.836-18.014 10.035-24.211zm-5.828-5.827c7.69-7.69 18.312-12.449 30.038-12.449 11.732 0 22.354 4.76 30.038 12.45 7.69 7.684 12.449 18.31 12.449 30.037 0 11.732-4.759 22.353-12.449 30.043-7.684 7.686-18.306 12.444-30.038 12.444-11.726 0-22.348-4.758-30.038-12.444-7.689-7.69-12.443-18.31-12.443-30.043 0-11.732 4.754-22.353 12.443-30.038z" fill="url(#paintMobile_linear)"/><defs><linearGradient id="paintMobile_linear" x1="0" y1="47" x2="147.309" y2="239.936" gradientUnits="userSpaceOnUse"><stop stop-color="#8BC4C1"/><stop offset=".7" stop-color="#0093DD"/><stop offset="1" stop-color="#23164D"/></linearGradient></defs></svg>